<?xml version="1.0" encoding="utf-8"?>
<!-- Generator: Adobe Illustrator 28.1.0, SVG Export Plug-In . SVG Version: 6.00 Build 0)  -->
<svg version="1.1" id="Layer_1" xmlns="http://www.w3.org/2000/svg" xmlns:xlink="http://www.w3.org/1999/xlink" x="0px" y="0px"
	 viewBox="0 0 1080 1080" style="enable-background:new 0 0 1080 1080;" xml:space="preserve">
<style type="text/css">
	.st0{fill:#117EC2;}
	.st1{fill:#FFFFFF;}
	.st2{fill:none;stroke:#000000;stroke-width:0.8568;stroke-miterlimit:10;}
	.st3{fill:none;stroke:#117EC2;stroke-width:12;stroke-miterlimit:10;}
</style>
<g>
	<path class="st0" d="M812.96,514.12c-34.2-38.27-82.77-60.9-133.93-62.6c-11.52-37.49-33.98-69.75-65.18-93.52
		c-32.81-25-72.21-38.21-113.93-38.21c-72.19,0-136.7,40.12-168.36,104.7c-3.86,7.87-4.09,17.02-0.64,25.1
		c3.46,8.11,10.26,14.3,18.66,16.98c14.36,4.58,29.65-2,36.37-15.64c21.48-43.59,65.15-70.67,113.97-70.67
		c52.29,0,98.78,31.6,117.9,79.36c-27.05,8.26-52.09,22.66-72.81,41.93c-6.41,5.96-9.91,14.41-9.58,23.18
		c0.32,8.79,4.44,16.99,11.36,22.53c11.75,9.42,28.45,8.71,39.69-1.69c23.51-21.74,54.18-33.71,86.36-33.71
		c36.24,0,70.88,15.51,95.04,42.55c24.49,27.41,35.69,62.85,31.52,99.79c-7.22,64.12-61.79,112.47-126.93,112.47
		c-0.66,0-1.33-0.01-1.98-0.02C589.1,765.46,538.91,686,514.78,647.8c-20.9-33.09-44.59-68.72-56.85-87.01
		c-8.24-12.29-16.71-22.64-25.89-31.63c-31.95-31.3-69.84-46.51-115.84-46.51c-46.03,0-88.97,18.27-120.9,51.43
		c-31.92,33.16-48.53,76.79-46.78,122.88c3.28,86.41,73.49,157.18,159.85,161.12c38.26,1.73,76.33-9.77,107.17-32.4
		c6.98-5.12,11.33-13.03,11.94-21.69c0.61-8.72-2.62-17.23-8.88-23.33l-0.9-0.87c-10.34-10.09-26.51-11.14-38.44-2.49
		c-19.64,14.24-43.83,21.49-68.14,20.37c-55.2-2.52-100.09-47.77-102.18-103.01c-1.12-29.51,9.5-57.44,29.92-78.64
		c20.43-21.22,47.89-32.9,77.34-32.9c30.21,0,52.89,9.02,73.53,29.24c6.19,6.06,12.07,13.29,17.97,22.1
		c12.1,18.05,35.45,53.17,55.95,85.63c27.47,43.49,91.79,145.35,205.9,147.03c0.98,0.02,1.94,0.02,2.92,0.02
		c95.93,0,176.32-71.44,187-166.17C865.51,607.48,848.55,553.96,812.96,514.12z"/>
	<g>
		<path class="st0" d="M749.33,370.12c-3.52,0-7.07-0.43-10.57-1.31c-11.19-2.8-20.62-9.79-26.55-19.69
			c-5.93-9.89-7.65-21.5-4.85-32.69c5.79-23.1,29.28-37.18,52.38-31.4l0,0c23.1,5.79,37.18,29.28,31.4,52.38
			c-2.8,11.19-9.79,20.62-19.69,26.55C764.66,368.03,757.05,370.12,749.33,370.12z M749.25,306.35c-9.21,0-17.61,6.24-19.95,15.57
			c-1.33,5.33-0.51,10.86,2.31,15.57c2.82,4.71,7.31,8.04,12.64,9.37c5.33,1.34,10.86,0.51,15.57-2.31
			c4.71-2.82,8.04-7.31,9.37-12.64c2.75-11-3.95-22.19-14.95-24.94l0,0C752.57,306.55,750.9,306.35,749.25,306.35z"/>
		<path class="st0" d="M888.48,339.26c-3.52,0-7.07-0.43-10.57-1.31c-11.19-2.8-20.62-9.79-26.55-19.69
			c-5.93-9.89-7.65-21.5-4.85-32.69c2.8-11.19,9.79-20.62,19.69-26.55c9.89-5.93,21.5-7.65,32.69-4.85l0,0
			c11.19,2.8,20.62,9.79,26.55,19.69c5.93,9.89,7.65,21.5,4.85,32.69c-2.8,11.19-9.79,20.62-19.69,26.55
			C903.81,337.17,896.21,339.26,888.48,339.26z M888.37,275.48c-3.68,0-7.3,0.99-10.54,2.93c-4.71,2.82-8.04,7.31-9.37,12.64
			c-1.33,5.33-0.51,10.86,2.31,15.57c2.82,4.71,7.31,8.04,12.64,9.37c5.33,1.34,10.86,0.51,15.57-2.31
			c4.71-2.82,8.04-7.31,9.37-12.64c1.33-5.33,0.51-10.86-2.31-15.57c-2.82-4.71-7.31-8.04-12.64-9.37l0,0
			C891.73,275.69,890.05,275.48,888.37,275.48z"/>
		<path class="st0" d="M857.51,462.93c-3.52,0-7.07-0.43-10.57-1.31c-11.19-2.8-20.62-9.79-26.55-19.69
			c-5.93-9.89-7.65-21.5-4.85-32.69c5.79-23.1,29.28-37.18,52.38-31.4l0,0c23.1,5.79,37.18,29.28,31.4,52.38
			c-2.8,11.19-9.79,20.62-19.69,26.55C872.84,460.84,865.24,462.93,857.51,462.93z M857.44,399.16c-9.21,0-17.61,6.24-19.95,15.57
			c-1.33,5.33-0.51,10.86,2.31,15.57c2.82,4.71,7.31,8.04,12.64,9.37c5.32,1.33,10.85,0.51,15.57-2.31
			c4.71-2.82,8.04-7.31,9.37-12.64c2.75-11-3.95-22.19-14.95-24.94l0,0C860.76,399.36,859.08,399.16,857.44,399.16z"/>
		
			<rect x="779.39" y="300.18" transform="matrix(0.9736 -0.2282 0.2282 0.9736 -49.4744 195.0632)" class="st0" width="78.88" height="22.62"/>
		
			<rect x="792.03" y="333.88" transform="matrix(0.6602 -0.7511 0.7511 0.6602 -7.4231 730.2386)" class="st0" width="22.62" height="78.88"/>
	</g>
</g>
</svg>
