<?xml version="1.0" encoding="utf-8"?>
<!-- Generator: Adobe Illustrator 28.1.0, SVG Export Plug-In . SVG Version: 6.00 Build 0)  -->
<svg version="1.1" id="Layer_1" xmlns="http://www.w3.org/2000/svg" xmlns:xlink="http://www.w3.org/1999/xlink" x="0px" y="0px"
	 viewBox="0 0 2649.36 1888.69" style="enable-background:new 0 0 2649.36 1888.69;" xml:space="preserve">
<style type="text/css">
	.st0{fill:#117EC2;}
	.st1{fill:#FFFFFF;}
	.st2{fill:none;stroke:#000000;stroke-width:0.8568;stroke-miterlimit:10;}
	.st3{fill:none;stroke:#117EC2;stroke-width:12;stroke-miterlimit:10;}
</style>
<g>
	<g>
		<g>
			<path class="st0" d="M994.5,1131.18c-0.42,10.82-4.47,19.97-12.16,27.45c-7.7,7.49-16.95,11.44-27.76,11.85H676.99
				c1.66,4.99,3.95,10.19,6.86,15.6c2.08,4.16,4.15,8.11,6.24,11.85c2.08,3.74,4.15,7.48,6.24,11.23c-2.09-3.32-3.96-6.55-5.62-9.67
				c-1.66-3.12-3.33-6.33-4.99-9.67c6.65,12.06,15.18,22.87,25.58,32.44c10.39,9.57,22.04,17.06,34.93,22.45
				c13.72,5.83,28.9,9.15,45.53,9.98h2.5c10.81,0,19.85,3.64,27.13,10.91c7.27,7.28,10.92,16.33,10.92,27.14
				c0,10.82-3.65,19.96-10.92,27.45c-7.28,7.48-16.32,11.23-27.13,11.23c-2.5,0-4.89,0-7.18,0c-2.29,0-4.47-0.21-6.55-0.62
				c-17.47-1.24-34.52-4.78-51.15-10.6c-16.63-5.82-32.12-13.41-46.47-22.77c-14.35-9.35-27.35-20.47-38.99-33.37
				c-11.65-12.89-21.42-27.24-29.32-43.04c-15.39-31.19-22.36-64.14-20.9-98.87c1.45-34.71,11.33-66.84,29.63-96.37
				c1.66-2.49,3.43-5.09,5.3-7.8c1.87-2.7,3.84-5.3,5.93-7.8c15.38-20.79,34.09-37.74,56.14-50.84
				c22.04-13.1,45.54-21.93,70.49-26.51c32.02-4.99,63.62-2.49,94.82,7.49c31.19,9.98,58.01,26.62,80.47,49.9
				c18.29,18.71,32.53,39.92,42.73,63.62c10.19,23.7,15.28,48.66,15.28,74.86v1.25V1131.18z M728.14,1026.39
				c-12.07,7.9-22.46,17.57-31.19,29.01c-8.73,11.44-15.39,23.81-19.96,37.11h234.55c-2.09-6.24-4.99-12.89-8.73-19.96
				c-7.91-14.97-18.61-27.76-32.12-38.36c-13.52-10.6-28.6-18.19-45.23-22.77c-16.22-4.57-32.86-5.51-49.9-2.81
				C758.49,1011.31,742.69,1017.24,728.14,1026.39z"/>
			<path class="st0" d="M1292.05,1292.75c0,10.4-3.64,19.24-10.91,26.51c-7.28,7.28-16.13,11.34-26.51,12.16h-1.25h-0.62H1249
				c-27.04-0.83-52.4-6.65-76.1-17.47c-23.7-10.81-44.36-25.27-61.95-43.36c-17.59-18.09-31.52-39.08-41.79-63
				c-10.27-23.91-15.4-49.6-15.4-77.04V968.37c0-10.81,3.77-19.96,11.32-27.45c7.54-7.48,16.78-11.23,27.67-11.23
				c10.89,0,20.22,3.74,27.97,11.23c7.76,7.49,11.64,16.64,11.64,27.45l-0.62,162.19c0,16.63,3.12,32.23,9.36,46.78
				c6.24,14.56,14.66,27.35,25.26,38.36c10.61,11.03,23.08,19.96,37.43,26.82c14.35,6.86,29.63,10.51,45.85,10.91h3.12
				c10.81,0,20.06,3.85,27.76,11.54C1288.2,1272.68,1292.05,1281.94,1292.05,1292.75z"/>
			<path class="st0" d="M1662.58,1211.96c0,16.18-3.1,31.52-9.29,46.04c-6.19,14.52-14.54,27.18-25.06,37.95
				c-10.53,10.78-23.02,19.39-37.51,25.82c-14.48,6.43-29.83,9.64-46.04,9.64h-172.17c-10.82,0-20.07-3.81-27.76-11.44
				c-7.7-7.63-11.54-16.81-11.54-27.54c0-10.72,3.84-19.9,11.54-27.53c7.69-7.63,16.94-11.45,27.76-11.45h170.92
				c11.23,0,20.9-4.08,29.01-12.25c8.11-8.17,12.16-17.91,12.16-29.23c0-11.73-4.05-21.68-12.16-29.84
				c-8.11-8.17-17.78-12.27-29.01-12.27h-81.09c-16.63,0-32.23-3.12-46.78-9.35c-14.56-6.24-27.24-14.76-38.05-25.58
				c-10.82-10.81-19.34-23.49-25.58-38.05c-6.23-14.55-9.35-30.15-9.35-46.78c0-16.63,3.12-32.23,9.35-46.79
				c6.24-14.55,14.76-27.23,25.58-38.05c10.81-10.81,23.39-19.44,37.74-25.89c14.35-6.45,29.84-9.67,46.48-9.67h79.22
				c10.81,0,20.06,3.82,27.76,11.45c7.69,7.63,11.54,16.81,11.54,27.53c0,10.73-3.87,19.91-11.59,27.54
				c-7.72,7.63-17.01,11.44-27.87,11.44h-79.53c-11.27,0.43-20.87,4.65-28.8,12.67c-7.93,8.02-11.9,17.93-11.9,29.75
				c0,11.4,3.95,21.21,11.85,29.44c7.9,8.23,17.67,12.35,29.32,12.35h81.09c16.63,0,32.23,3.21,46.79,9.64
				c14.55,6.44,27.23,15.04,38.05,25.82c10.81,10.78,19.34,23.43,25.57,37.95S1662.58,1195.37,1662.58,1211.96z"/>
			<path class="st0" d="M1797.32,909.74c-10.82,0-19.96-3.81-27.45-11.44c-7.48-7.63-11.23-16.81-11.23-27.54
				c0-10.72,3.74-19.9,11.23-27.53c7.49-7.63,16.63-11.45,27.45-11.45c10.81,0,20.06,3.82,27.76,11.45
				c7.69,7.63,11.54,16.81,11.54,27.53c0,10.73-3.85,19.91-11.54,27.54C1817.38,905.93,1808.12,909.74,1797.32,909.74z
				 M1797.32,956.52c10.81,0,20.06,3.85,27.76,11.54c7.69,7.7,11.54,16.95,11.54,27.76v295.06c0,10.82-3.85,20.07-11.54,27.76
				c-7.7,7.7-16.95,11.54-27.76,11.54c-10.82,0-19.96-3.84-27.45-11.54c-7.48-7.69-11.23-16.94-11.23-27.76V995.82
				c0-10.81,3.74-20.06,11.23-27.76C1777.36,960.37,1786.5,956.52,1797.32,956.52z"/>
			<path class="st0" d="M2281.23,965.25c14.16,9.57,26.76,20.7,37.8,33.37c11.04,12.69,20.3,26.42,27.8,41.17
				c7.5,14.76,13.23,30.36,17.19,46.78c3.96,16.43,5.72,32.97,5.31,49.6c-0.84,21.21-4.79,41.9-11.85,62.07
				c-7.08,20.18-17.06,38.78-29.94,55.83c-16.22,21.21-35.97,38.36-59.26,51.46c-23.3,13.1-48.03,21.32-74.23,24.64
				c-26.62,3.33-52.71,1.35-78.29-5.93c-25.57-7.27-48.97-18.81-70.17-34.62V1289v102.93c0,10.81-3.78,19.96-11.33,27.44
				c-7.54,7.49-16.77,11.23-27.66,11.23c-10.9,0-20.13-3.74-27.67-11.23c-7.54-7.48-11.31-16.63-11.31-27.44v-260.13v-3.74
				c0-3.32,0.1-6.55,0.31-9.67c0.2-3.12,0.51-6.34,0.93-9.67c1.66-17.05,5.72-33.58,12.17-49.59c6.46-16,14.58-30.88,24.37-44.6
				c9.79-13.73,21.25-26.09,34.37-37.12c13.12-11.02,27.38-20.27,42.8-27.76c32.07-14.97,65.81-21.1,101.21-18.4
				C2219.17,933.96,2251.67,945.29,2281.23,965.25z M2291.35,1139.29c2.08-29.11-5.2-55.3-21.8-78.6
				c-8.3-12.06-18.38-22.24-30.21-30.57c-11.83-8.31-24.6-14.35-38.31-18.09c-28.24-7.89-55.45-6.02-81.61,5.62
				c3.34-1.66,6.66-3.22,9.99-4.68c3.33-1.45,6.67-2.81,10-4.06c-4.16,1.67-8.21,3.34-12.16,4.99c-3.96,1.67-7.8,3.54-11.54,5.61
				c-15.39,6.66-28.69,16.64-39.92,29.94c-14.56,17.06-24.02,36.6-28.39,58.64c-4.36,22.05-2.81,43.66,4.68,64.87
				c5.82,15.81,14.55,29.94,26.2,42.42c11.64,12.48,25.36,22.25,41.17,29.32c15.79,6.66,32.21,9.98,49.22,9.98
				c17.02,0,33.42-3.53,49.2-10.61c6.64-3.32,12.96-6.86,18.99-10.6c6.02-3.74,11.73-8.11,17.13-13.1
				c10.79-10.81,19.5-23.17,26.15-37.11C2286.78,1169.34,2290.52,1154.68,2291.35,1139.29z"/>
			<g>
				<path class="st0" d="M334.76,944.25h8.44v-58.46c0-15.69,0.33-27.99,0.99-36.9c0.65-8.91,2.48-16.58,5.48-22.99
					c3-6.65,7.31-12.06,12.93-16.22c5.62-4.16,11.9-6.24,18.84-6.24c9.74,0,18.56,4.64,26.43,13.9c5.24,6.18,8.58,13.73,9.98,22.64
					c1.41,8.91,2.11,21.57,2.11,37.96v66.31h75.05c10.87,0,19.16,3.27,24.88,9.81c5.72,6.54,8.58,14.92,8.58,25.13
					c0,13.08-4.08,22.23-12.23,27.45c-8.15,5.23-37.54,7.84-52.73,7.84h-43.56v178.97c0,15.21,0.42,26.92,1.26,35.12
					c0.84,8.2,3.09,14.86,6.75,19.97c3.66,5.11,9.6,7.66,17.85,7.66c4.5,0,10.59-1.01,18.28-3.03c7.68-2.02,13.68-3.03,18-3.03
					c6.18,0,11.76,3.15,16.73,9.45c4.96,6.3,7.45,14.08,7.45,23.35c0,15.69-6.75,27.69-20.24,36.01
					c-13.5,8.31-32.9,12.48-58.2,12.48c-24,0-42.18-5.11-54.55-15.33c-12.37-10.22-20.48-24.36-24.32-42.42
					c-3.84-18.06-5.77-42.19-5.77-72.37v-186.81h-10.12c-11.06,0-38.57-3.33-44.38-9.98c-5.81-6.65-8.72-15.09-8.72-25.31
					c0-10.21,3.04-18.59,9.14-25.13C295.2,947.52,323.13,944.25,334.76,944.25z"/>
			</g>
		</g>
		<path class="st0" d="M1632.12,468.67c-34.2-38.27-82.77-60.9-133.93-62.6c-11.52-37.49-33.98-69.75-65.18-93.52
			c-32.81-25-72.21-38.21-113.93-38.21c-72.19,0-136.7,40.12-168.36,104.7c-3.86,7.87-4.09,17.02-0.64,25.1
			c3.46,8.11,10.27,14.3,18.66,16.97c14.36,4.58,29.65-2,36.37-15.64c21.48-43.59,65.15-70.67,113.97-70.67
			c52.29,0,98.78,31.6,117.9,79.36c-27.05,8.26-52.09,22.66-72.81,41.93c-6.41,5.96-9.91,14.41-9.58,23.18
			c0.32,8.79,4.44,16.99,11.36,22.53c11.75,9.42,28.45,8.71,39.69-1.69c23.51-21.74,54.18-33.71,86.36-33.71
			c36.24,0,70.88,15.51,95.04,42.55c24.49,27.41,35.69,62.85,31.52,99.79c-7.22,64.12-61.79,112.47-126.93,112.47
			c-0.66,0-1.33-0.01-1.98-0.02c-81.37-1.2-131.56-80.66-155.69-118.86c-20.9-33.09-44.59-68.72-56.85-87.01
			c-8.24-12.29-16.71-22.64-25.89-31.63c-31.95-31.3-69.84-46.51-115.84-46.51c-46.03,0-88.97,18.27-120.9,51.43
			c-31.92,33.16-48.53,76.79-46.78,122.88c3.28,86.41,73.49,157.18,159.85,161.12c38.26,1.73,76.33-9.77,107.17-32.4
			c6.98-5.12,11.33-13.03,11.94-21.69c0.61-8.72-2.62-17.23-8.88-23.33l-0.9-0.87c-10.34-10.09-26.51-11.14-38.44-2.49
			c-19.64,14.24-43.83,21.49-68.14,20.37c-55.2-2.52-100.09-47.77-102.18-103.01c-1.12-29.51,9.5-57.44,29.92-78.64
			c20.43-21.22,47.89-32.9,77.34-32.9c30.21,0,52.89,9.02,73.53,29.24c6.19,6.06,12.07,13.29,17.97,22.1
			c12.1,18.05,35.45,53.17,55.95,85.63c27.47,43.49,91.79,145.35,205.9,147.03c0.98,0.02,1.94,0.02,2.92,0.02
			c95.93,0,176.32-71.44,187-166.17C1684.67,562.03,1667.71,508.5,1632.12,468.67z"/>
	</g>
	<g>
		<path class="st0" d="M397.96,1614.35c-8.44,0-16.23-1.42-23.38-4.25c-7.15-2.83-13.35-6.81-18.58-11.93
			c-5.23-5.13-9.32-11.16-12.25-18.1c-2.94-6.94-4.4-14.52-4.4-22.74c0-8.22,1.47-15.8,4.4-22.75c2.94-6.94,7.05-12.97,12.33-18.1
			c5.29-5.13,11.5-9.1,18.66-11.93c7.15-2.83,14.95-4.24,23.38-4.24c8.11,0,15.75,1.36,22.9,4.08c7.15,2.72,13.19,6.81,18.1,12.25
			l-7.53,7.53c-4.59-4.7-9.66-8.09-15.21-10.17c-5.55-2.08-11.53-3.12-17.94-3.12c-6.73,0-12.97,1.15-18.74,3.44
			c-5.77,2.3-10.79,5.55-15.06,9.77c-4.27,4.22-7.61,9.13-10.01,14.74c-2.4,5.6-3.6,11.77-3.6,18.5s1.2,12.89,3.6,18.5
			c2.4,5.61,5.74,10.52,10.01,14.73c4.27,4.22,9.29,7.47,15.06,9.77c5.77,2.3,12.01,3.45,18.74,3.45c6.41,0,12.39-1.07,17.94-3.21
			c5.55-2.13,10.62-5.55,15.21-10.25l7.53,7.53c-4.91,5.45-10.95,9.56-18.1,12.34C413.87,1612.96,406.18,1614.35,397.96,1614.35z"/>
		<path class="st0" d="M466.03,1613.38v-118.85h11.37v118.85H466.03z"/>
		<path class="st0" d="M547.39,1614.18c-8.11,0-15.4-1.84-21.86-5.52c-6.46-3.69-11.56-8.76-15.3-15.22
			c-3.74-6.46-5.61-13.85-5.61-22.18c0-8.43,1.87-15.86,5.61-22.26c3.74-6.41,8.81-11.42,15.22-15.05
			c6.41-3.63,13.72-5.45,21.94-5.45c8.33,0,15.72,1.82,22.18,5.45c6.46,3.63,11.53,8.65,15.22,15.05
			c3.68,6.41,5.53,13.83,5.53,22.26c0,8.33-1.84,15.72-5.53,22.18c-3.68,6.46-8.79,11.53-15.3,15.22
			C562.98,1612.34,555.61,1614.18,547.39,1614.18z M547.39,1604.1c6.09,0,11.48-1.36,16.18-4.08s8.41-6.57,11.13-11.53
			c2.72-4.96,4.08-10.7,4.08-17.22c0-6.62-1.36-12.39-4.08-17.3c-2.72-4.91-6.43-8.73-11.13-11.45c-4.7-2.72-10.04-4.08-16.02-4.08
			c-5.98,0-11.32,1.36-16.02,4.08c-4.7,2.72-8.44,6.54-11.21,11.45c-2.78,4.91-4.17,10.68-4.17,17.3c0,6.52,1.39,12.25,4.17,17.22
			c2.78,4.96,6.51,8.81,11.21,11.53C536.23,1602.73,541.52,1604.1,547.39,1604.1z"/>
		<path class="st0" d="M652.3,1614.18c-7.15,0-13.4-1.33-18.74-4c-5.34-2.67-9.48-6.67-12.41-12.01
			c-2.94-5.34-4.41-12.01-4.41-20.02v-48.85h11.37v47.57c0,8.97,2.22,15.72,6.65,20.26c4.43,4.54,10.65,6.81,18.66,6.81
			c5.87,0,10.97-1.2,15.3-3.6c4.33-2.4,7.63-5.9,9.93-10.49c2.3-4.59,3.44-10.09,3.44-16.5v-44.04h11.37v84.09h-10.89v-23.06
			l1.76,4.16c-2.67,6.2-6.81,11.03-12.41,14.5C666.32,1612.45,659.78,1614.18,652.3,1614.18z"/>
		<path class="st0" d="M762.66,1614.18c-8.01,0-15.19-1.82-21.54-5.44c-6.35-3.63-11.35-8.67-14.97-15.14
			c-3.63-6.46-5.45-13.91-5.45-22.34c0-8.54,1.82-16.02,5.45-22.42c3.63-6.41,8.62-11.4,14.97-14.98
			c6.35-3.57,13.54-5.37,21.54-5.37c7.37,0,13.96,1.66,19.78,4.97c5.82,3.31,10.46,8.14,13.94,14.49c3.47,6.35,5.2,14.12,5.2,23.31
			c0,9.08-1.71,16.82-5.13,23.22c-3.42,6.41-8.04,11.29-13.85,14.66C776.78,1612.5,770.13,1614.18,762.66,1614.18z M763.46,1604.1
			c5.98,0,11.34-1.36,16.1-4.08c4.75-2.72,8.49-6.57,11.21-11.53c2.72-4.96,4.08-10.7,4.08-17.22c0-6.62-1.36-12.39-4.08-17.3
			c-2.72-4.91-6.46-8.73-11.21-11.45c-4.75-2.72-10.12-4.08-16.1-4.08c-5.87,0-11.16,1.36-15.86,4.08
			c-4.7,2.72-8.44,6.54-11.21,11.45c-2.78,4.91-4.17,10.68-4.17,17.3c0,6.52,1.39,12.25,4.17,17.22c2.78,4.96,6.51,8.81,11.21,11.53
			C752.3,1602.73,757.58,1604.1,763.46,1604.1z M795.17,1613.38v-25.31l1.12-16.98l-1.6-16.98v-59.58h11.37v118.85H795.17z"/>
		<path class="st0" d="M938.84,1614.35c-8.44,0-16.23-1.42-23.38-4.25c-7.15-2.83-13.35-6.81-18.58-11.93
			c-5.23-5.13-9.32-11.16-12.25-18.1c-2.94-6.94-4.4-14.52-4.4-22.74c0-8.22,1.47-15.8,4.4-22.75c2.94-6.94,7.05-12.97,12.33-18.1
			c5.29-5.13,11.5-9.1,18.66-11.93c7.15-2.83,14.95-4.24,23.38-4.24c8.11,0,15.75,1.36,22.9,4.08c7.15,2.72,13.19,6.81,18.1,12.25
			l-7.53,7.53c-4.59-4.7-9.66-8.09-15.22-10.17c-5.55-2.08-11.53-3.12-17.94-3.12c-6.73,0-12.97,1.15-18.74,3.44
			c-5.77,2.3-10.79,5.55-15.06,9.77c-4.27,4.22-7.61,9.13-10.01,14.74c-2.4,5.6-3.6,11.77-3.6,18.5s1.2,12.89,3.6,18.5
			c2.4,5.61,5.74,10.52,10.01,14.73c4.27,4.22,9.29,7.47,15.06,9.77c5.77,2.3,12.01,3.45,18.74,3.45c6.41,0,12.39-1.07,17.94-3.21
			c5.55-2.13,10.62-5.55,15.22-10.25l7.53,7.53c-4.91,5.45-10.95,9.56-18.1,12.34C954.75,1612.96,947.06,1614.35,938.84,1614.35z"/>
		<path class="st0" d="M1037.5,1614.18c-8.11,0-15.4-1.84-21.86-5.52c-6.46-3.69-11.56-8.76-15.3-15.22
			c-3.74-6.46-5.61-13.85-5.61-22.18c0-8.43,1.87-15.86,5.61-22.26c3.74-6.41,8.81-11.42,15.22-15.05
			c6.41-3.63,13.72-5.45,21.94-5.45c8.33,0,15.72,1.82,22.18,5.45c6.46,3.63,11.53,8.65,15.22,15.05
			c3.68,6.41,5.53,13.83,5.53,22.26c0,8.33-1.84,15.72-5.53,22.18c-3.68,6.46-8.79,11.53-15.3,15.22
			C1053.09,1612.34,1045.72,1614.18,1037.5,1614.18z M1037.5,1604.1c6.09,0,11.48-1.36,16.18-4.08c4.7-2.72,8.41-6.57,11.13-11.53
			c2.72-4.96,4.08-10.7,4.08-17.22c0-6.62-1.36-12.39-4.08-17.3c-2.72-4.91-6.43-8.73-11.13-11.45c-4.7-2.72-10.04-4.08-16.02-4.08
			c-5.98,0-11.32,1.36-16.02,4.08c-4.7,2.72-8.44,6.54-11.21,11.45c-2.78,4.91-4.17,10.68-4.17,17.3c0,6.52,1.39,12.25,4.17,17.22
			c2.78,4.96,6.51,8.81,11.21,11.53C1026.34,1602.73,1031.63,1604.1,1037.5,1604.1z"/>
		<path class="st0" d="M1212.73,1528.49c6.83,0,12.79,1.31,17.86,3.93c5.07,2.62,9.02,6.59,11.85,11.93
			c2.83,5.34,4.24,12.07,4.24,20.18v48.85h-11.37v-47.73c0-8.86-2.11-15.56-6.33-20.1s-10.17-6.81-17.86-6.81
			c-5.77,0-10.76,1.2-14.97,3.6c-4.22,2.4-7.48,5.87-9.77,10.41c-2.3,4.54-3.44,10.01-3.44,16.42v44.21h-11.37v-47.73
			c0-8.86-2.14-15.56-6.41-20.1c-4.27-4.54-10.25-6.81-17.94-6.81c-5.66,0-10.63,1.2-14.9,3.6c-4.27,2.4-7.56,5.87-9.85,10.41
			c-2.3,4.54-3.44,10.01-3.44,16.42v44.21h-11.37v-84.09h10.89v22.74l-1.76-4c2.56-6.09,6.7-10.87,12.41-14.34
			c5.71-3.47,12.47-5.21,20.26-5.21c8.22,0,15.22,2.06,20.98,6.17c5.77,4.11,9.5,10.28,11.21,18.5l-4.48-1.76
			c2.46-6.84,6.81-12.36,13.05-16.58C1196.47,1530.61,1203.97,1528.49,1212.73,1528.49z"/>
		<path class="st0" d="M1386.67,1528.49c6.83,0,12.79,1.31,17.86,3.93c5.07,2.62,9.02,6.59,11.85,11.93
			c2.83,5.34,4.24,12.07,4.24,20.18v48.85h-11.37v-47.73c0-8.86-2.11-15.56-6.33-20.1s-10.17-6.81-17.86-6.81
			c-5.77,0-10.76,1.2-14.97,3.6c-4.22,2.4-7.48,5.87-9.77,10.41c-2.3,4.54-3.44,10.01-3.44,16.42v44.21h-11.37v-47.73
			c0-8.86-2.14-15.56-6.41-20.1c-4.27-4.54-10.25-6.81-17.94-6.81c-5.66,0-10.63,1.2-14.9,3.6c-4.27,2.4-7.56,5.87-9.85,10.41
			c-2.3,4.54-3.44,10.01-3.44,16.42v44.21h-11.37v-84.09h10.89v22.74l-1.76-4c2.56-6.09,6.7-10.87,12.41-14.34
			c5.71-3.47,12.47-5.21,20.26-5.21c8.22,0,15.22,2.06,20.98,6.17c5.77,4.11,9.5,10.28,11.21,18.5l-4.48-1.76
			c2.46-6.84,6.81-12.36,13.05-16.58C1370.41,1530.61,1377.91,1528.49,1386.67,1528.49z"/>
		<path class="st0" d="M1490.29,1614.18c-7.15,0-13.4-1.33-18.74-4c-5.34-2.67-9.48-6.67-12.41-12.01
			c-2.94-5.34-4.41-12.01-4.41-20.02v-48.85h11.37v47.57c0,8.97,2.22,15.72,6.65,20.26c4.43,4.54,10.65,6.81,18.66,6.81
			c5.87,0,10.97-1.2,15.3-3.6c4.33-2.4,7.63-5.9,9.93-10.49c2.3-4.59,3.44-10.09,3.44-16.5v-44.04h11.37v84.09h-10.89v-23.06
			l1.76,4.16c-2.67,6.2-6.81,11.03-12.41,14.5C1504.31,1612.45,1497.77,1614.18,1490.29,1614.18z"/>
		<path class="st0" d="M1610.1,1528.49c6.83,0,12.84,1.31,18.02,3.93c5.18,2.62,9.23,6.59,12.17,11.93
			c2.93,5.34,4.4,12.07,4.4,20.18v48.85h-11.37v-47.73c0-8.86-2.22-15.56-6.65-20.1c-4.43-4.54-10.65-6.81-18.66-6.81
			c-5.98,0-11.19,1.2-15.62,3.6c-4.43,2.4-7.85,5.87-10.25,10.41s-3.6,10.01-3.6,16.42v44.21h-11.37v-84.09h10.89v23.06l-1.76-4.32
			c2.67-6.09,6.94-10.87,12.81-14.34C1594.99,1530.23,1601.98,1528.49,1610.1,1528.49z"/>
		<path class="st0" d="M1685.22,1510.72c-2.35,0-4.32-0.8-5.93-2.4c-1.6-1.6-2.4-3.52-2.4-5.77c0-2.24,0.8-4.14,2.4-5.69
			c1.6-1.54,3.58-2.32,5.93-2.32c2.35,0,4.33,0.75,5.93,2.24c1.6,1.5,2.4,3.36,2.4,5.61c0,2.35-0.78,4.33-2.32,5.93
			C1689.68,1509.92,1687.67,1510.72,1685.22,1510.72z M1679.45,1613.38v-84.09h11.37v84.09H1679.45z"/>
		<path class="st0" d="M1761.46,1614.18c-8.33,0-15.77-1.84-22.34-5.52c-6.57-3.69-11.72-8.76-15.46-15.22
			c-3.74-6.46-5.61-13.85-5.61-22.18c0-8.43,1.87-15.86,5.61-22.26c3.74-6.41,8.89-11.42,15.46-15.05
			c6.57-3.63,14.02-5.45,22.34-5.45c7.15,0,13.61,1.39,19.38,4.17c5.77,2.78,10.3,6.94,13.61,12.49l-8.49,5.77
			c-2.88-4.27-6.46-7.42-10.73-9.45c-4.27-2.03-8.92-3.04-13.94-3.04c-5.98,0-11.37,1.36-16.18,4.08c-4.8,2.72-8.6,6.54-11.37,11.45
			c-2.78,4.91-4.17,10.68-4.17,17.3s1.39,12.39,4.17,17.3c2.78,4.92,6.57,8.73,11.37,11.45c4.81,2.72,10.2,4.08,16.18,4.08
			c5.02,0,9.66-1.01,13.94-3.04c4.27-2.03,7.85-5.13,10.73-9.29l8.49,5.76c-3.31,5.44-7.85,9.59-13.61,12.42
			C1775.07,1612.77,1768.61,1614.18,1761.46,1614.18z"/>
		<path class="st0" d="M1844.42,1614.18c-6.3,0-11.77-1.04-16.42-3.12s-8.2-4.96-10.65-8.65c-2.46-3.68-3.68-7.93-3.68-12.73
			c0-4.38,1.04-8.35,3.12-11.93c2.08-3.57,5.5-6.46,10.25-8.65c4.75-2.19,11.13-3.28,19.14-3.28h28.99v8.49h-28.67
			c-8.11,0-13.75,1.44-16.9,4.33c-3.15,2.88-4.73,6.46-4.73,10.73c0,4.81,1.87,8.65,5.61,11.53c3.74,2.89,8.97,4.33,15.7,4.33
			c6.41,0,11.93-1.47,16.58-4.4c4.64-2.93,8.03-7.18,10.17-12.73l2.56,7.85c-2.14,5.55-5.85,9.98-11.13,13.29
			C1859.08,1612.53,1852.43,1614.18,1844.42,1614.18z M1873.41,1613.38v-18.58l-0.48-3.04v-31.07c0-7.15-2-12.65-6.01-16.5
			c-4-3.84-9.96-5.77-17.86-5.77c-5.44,0-10.62,0.91-15.54,2.72s-9.08,4.22-12.49,7.21l-5.13-8.49c4.27-3.63,9.39-6.43,15.38-8.41
			c5.98-1.98,12.28-2.96,18.9-2.96c10.89,0,19.3,2.7,25.23,8.09c5.93,5.39,8.89,13.59,8.89,24.59v52.21H1873.41z"/>
		<path class="st0" d="M1906.09,1538.74v-9.45h52.06v9.45H1906.09z M1945.81,1614.18c-7.9,0-13.99-2.13-18.26-6.41
			c-4.27-4.27-6.41-10.3-6.41-18.1v-78.96h11.37v78.32c0,4.92,1.25,8.71,3.76,11.37c2.51,2.67,6.11,4.01,10.81,4.01
			c5.02,0,9.18-1.44,12.49-4.33l4,8.17c-2.24,2.03-4.94,3.52-8.09,4.49C1952.35,1613.7,1949.12,1614.18,1945.81,1614.18z"/>
		<path class="st0" d="M1994.02,1510.72c-2.35,0-4.32-0.8-5.93-2.4c-1.6-1.6-2.4-3.52-2.4-5.77c0-2.24,0.8-4.14,2.4-5.69
			c1.6-1.54,3.58-2.32,5.93-2.32c2.35,0,4.33,0.75,5.93,2.24c1.6,1.5,2.4,3.36,2.4,5.61c0,2.35-0.78,4.33-2.32,5.93
			C1998.48,1509.92,1996.47,1510.72,1994.02,1510.72z M1988.25,1613.38v-84.09h11.37v84.09H1988.25z"/>
		<path class="st0" d="M2069.61,1614.18c-8.11,0-15.4-1.84-21.86-5.52c-6.46-3.69-11.56-8.76-15.3-15.22
			c-3.74-6.46-5.61-13.85-5.61-22.18c0-8.43,1.87-15.86,5.61-22.26c3.74-6.41,8.81-11.42,15.22-15.05
			c6.41-3.63,13.72-5.45,21.94-5.45c8.33,0,15.72,1.82,22.18,5.45c6.46,3.63,11.53,8.65,15.22,15.05
			c3.68,6.41,5.53,13.83,5.53,22.26c0,8.33-1.84,15.72-5.53,22.18c-3.68,6.46-8.79,11.53-15.3,15.22
			C2085.2,1612.34,2077.84,1614.18,2069.61,1614.18z M2069.61,1604.1c6.09,0,11.48-1.36,16.18-4.08c4.7-2.72,8.41-6.57,11.13-11.53
			c2.72-4.96,4.08-10.7,4.08-17.22c0-6.62-1.36-12.39-4.08-17.3c-2.72-4.91-6.43-8.73-11.13-11.45c-4.7-2.72-10.04-4.08-16.02-4.08
			c-5.98,0-11.32,1.36-16.02,4.08c-4.7,2.72-8.44,6.54-11.21,11.45c-2.78,4.91-4.17,10.68-4.17,17.3c0,6.52,1.39,12.25,4.17,17.22
			c2.78,4.96,6.51,8.81,11.21,11.53C2058.46,1602.73,2063.74,1604.1,2069.61,1604.1z"/>
		<path class="st0" d="M2182.69,1528.49c6.83,0,12.84,1.31,18.02,3.93c5.18,2.62,9.23,6.59,12.17,11.93
			c2.93,5.34,4.4,12.07,4.4,20.18v48.85h-11.37v-47.73c0-8.86-2.22-15.56-6.65-20.1c-4.43-4.54-10.65-6.81-18.66-6.81
			c-5.98,0-11.19,1.2-15.62,3.6c-4.43,2.4-7.85,5.87-10.25,10.41s-3.6,10.01-3.6,16.42v44.21h-11.37v-84.09h10.89v23.06l-1.76-4.32
			c2.67-6.09,6.94-10.87,12.81-14.34C2167.58,1530.23,2174.58,1528.49,2182.69,1528.49z"/>
		<path class="st0" d="M2274.63,1614.18c-6.94,0-13.51-0.98-19.7-2.96c-6.19-1.98-11.05-4.46-14.58-7.45l5.13-8.97
			c3.42,2.56,7.79,4.78,13.14,6.65c5.34,1.87,10.94,2.8,16.82,2.8c8.01,0,13.77-1.25,17.3-3.76c3.52-2.51,5.29-5.85,5.29-10.01
			c0-3.1-0.99-5.53-2.96-7.29c-1.98-1.76-4.56-3.09-7.77-4c-3.2-0.91-6.78-1.68-10.73-2.32c-3.95-0.64-7.87-1.39-11.77-2.24
			c-3.9-0.85-7.45-2.11-10.65-3.77c-3.2-1.65-5.79-3.92-7.77-6.81c-1.98-2.88-2.96-6.73-2.96-11.53c0-4.59,1.28-8.7,3.84-12.33
			c2.56-3.63,6.33-6.49,11.29-8.57c4.97-2.09,11.02-3.13,18.18-3.13c5.44,0,10.89,0.72,16.34,2.16c5.44,1.44,9.93,3.34,13.45,5.69
			l-4.97,9.13c-3.74-2.56-7.74-4.41-12.01-5.53c-4.27-1.12-8.54-1.68-12.81-1.68c-7.58,0-13.16,1.31-16.74,3.93
			c-3.58,2.62-5.37,5.95-5.37,10.01c0,3.2,0.99,5.71,2.96,7.53c1.97,1.82,4.59,3.23,7.85,4.25c3.26,1.01,6.83,1.84,10.73,2.48
			c3.9,0.64,7.79,1.42,11.69,2.32c3.9,0.91,7.47,2.14,10.73,3.69c3.26,1.55,5.87,3.74,7.85,6.56c1.97,2.83,2.96,6.54,2.96,11.13
			c0,4.91-1.36,9.15-4.08,12.73c-2.72,3.58-6.67,6.35-11.85,8.33C2288.27,1613.2,2282,1614.18,2274.63,1614.18z"/>
	</g>
</g>
<g>
	<path class="st0" d="M1568.49,324.67c-3.52,0-7.07-0.43-10.57-1.31c-11.19-2.8-20.62-9.79-26.55-19.69
		c-5.93-9.89-7.65-21.5-4.85-32.69c5.79-23.1,29.28-37.18,52.38-31.4l0,0c23.1,5.79,37.18,29.28,31.4,52.38
		c-2.8,11.19-9.79,20.62-19.69,26.55C1583.82,322.58,1576.21,324.67,1568.49,324.67z M1568.41,260.9c-9.21,0-17.61,6.24-19.95,15.57
		c-1.33,5.33-0.51,10.86,2.31,15.57c2.82,4.71,7.31,8.04,12.64,9.37c5.33,1.34,10.86,0.51,15.57-2.31
		c4.71-2.82,8.04-7.31,9.37-12.64c2.75-11-3.95-22.19-14.95-24.94l0,0C1571.74,261.1,1570.06,260.9,1568.41,260.9z"/>
	<path class="st0" d="M1707.65,293.8c-3.52,0-7.07-0.43-10.57-1.31c-11.19-2.8-20.62-9.79-26.55-19.69
		c-5.93-9.89-7.65-21.5-4.85-32.69c2.8-11.19,9.79-20.62,19.69-26.55c9.89-5.93,21.5-7.65,32.69-4.85l0,0
		c11.19,2.8,20.62,9.79,26.55,19.69c5.93,9.89,7.65,21.5,4.85,32.69c-2.8,11.19-9.79,20.62-19.69,26.55
		C1722.98,291.72,1715.37,293.8,1707.65,293.8z M1707.53,230.03c-3.68,0-7.3,0.99-10.54,2.93c-4.71,2.82-8.04,7.31-9.37,12.64
		c-1.33,5.33-0.51,10.86,2.31,15.57c2.82,4.71,7.31,8.04,12.64,9.37c5.33,1.34,10.86,0.51,15.57-2.31
		c4.71-2.82,8.04-7.31,9.37-12.64c1.33-5.33,0.51-10.86-2.31-15.57c-2.82-4.71-7.31-8.04-12.64-9.37l0,0
		C1710.9,230.24,1709.21,230.03,1707.53,230.03z"/>
	<path class="st0" d="M1676.67,417.48c-3.52,0-7.07-0.43-10.57-1.31c-11.19-2.8-20.62-9.79-26.55-19.69
		c-5.93-9.89-7.65-21.5-4.85-32.69c5.79-23.1,29.28-37.18,52.38-31.4l0,0c23.1,5.79,37.18,29.28,31.4,52.38
		c-2.8,11.19-9.79,20.62-19.69,26.55C1692,415.39,1684.4,417.48,1676.67,417.48z M1676.6,353.71c-9.21,0-17.61,6.24-19.95,15.57
		c-1.33,5.33-0.51,10.86,2.31,15.57s7.31,8.04,12.64,9.37c5.32,1.33,10.85,0.51,15.57-2.31c4.71-2.82,8.04-7.31,9.37-12.64
		c2.75-11-3.95-22.19-14.95-24.94l0,0C1679.92,353.91,1678.25,353.71,1676.6,353.71z"/>
	
		<rect x="1598.55" y="254.72" transform="matrix(0.9736 -0.2282 0.2282 0.9736 -17.4914 380.7858)" class="st0" width="78.88" height="22.62"/>
	
		<rect x="1611.19" y="288.43" transform="matrix(0.6602 -0.7511 0.7511 0.6602 305.0677 1330.0598)" class="st0" width="22.62" height="78.88"/>
</g>
</svg>
