<svg width="169" height="120" viewBox="0 0 169 120" fill="none" xmlns="http://www.w3.org/2000/svg">
<g clip-path="url(#clip0_5504_50895)">
<path d="M58.9283 74.2955C58.8962 75.1234 58.5861 75.8235 57.9975 76.3958C57.4081 76.9689 56.7 77.2711 55.8725 77.3025H34.6234C34.7505 77.6843 34.9258 78.0821 35.1485 78.4961C35.3077 78.8144 35.4662 79.1166 35.6262 79.4028C35.7854 79.6889 35.9439 79.9751 36.1038 80.262C35.9439 80.008 35.8007 79.7608 35.6736 79.5221C35.5466 79.2834 35.4187 79.0378 35.2917 78.7822C35.8007 79.705 36.4537 80.5321 37.2498 81.2643C38.0451 81.9966 38.9369 82.5697 39.9236 82.9821C40.9739 83.4281 42.1359 83.6822 43.4089 83.7457H43.6002C44.4277 83.7457 45.1197 84.0242 45.677 84.5804C46.2335 85.1375 46.5129 85.8299 46.5129 86.657C46.5129 87.4849 46.2335 88.1842 45.677 88.7573C45.1197 89.3296 44.4277 89.6166 43.6002 89.6166C43.4089 89.6166 43.2259 89.6166 43.0506 89.6166C42.8753 89.6166 42.7085 89.6005 42.5492 89.5691C41.2119 89.4742 39.9068 89.2034 38.6338 88.7581C37.3608 88.3128 36.175 87.732 35.0766 87.0159C33.9781 86.3005 32.983 85.4496 32.0919 84.4626C31.2001 83.4763 30.4523 82.3784 29.8475 81.1695C28.6695 78.783 28.1359 76.2619 28.2477 73.6046C28.3587 70.9488 29.115 68.4904 30.5158 66.231C30.6429 66.0404 30.7784 65.8415 30.9215 65.6342C31.0647 65.4276 31.2155 65.2286 31.3754 65.0373C32.5528 63.4466 33.985 62.1497 35.6729 61.1474C37.36 60.1451 39.1589 59.4695 41.0688 59.119C43.5199 58.7372 45.9388 58.9285 48.3271 59.6921C50.7147 60.4557 52.7677 61.7289 54.487 63.5101C55.887 64.9417 56.9771 66.5646 57.7579 68.3779C58.5379 70.1913 58.9276 72.1011 58.9276 74.1057V74.2014V74.2955H58.9283ZM38.5389 66.2769C37.6149 66.8813 36.8196 67.6212 36.1513 68.4965C35.483 69.3718 34.9732 70.3183 34.6234 71.3359H52.5779C52.4179 70.8585 52.1959 70.3497 51.9096 69.8087C51.3041 68.6633 50.485 67.6847 49.4508 66.8737C48.4159 66.0626 47.2616 65.4819 45.9886 65.1315C44.7469 64.7818 43.4732 64.7099 42.1688 64.9165C40.8621 65.1238 39.6526 65.5775 38.5389 66.2769Z" fill="white"/>
<path d="M81.7055 86.6571C81.7055 87.4529 81.4269 88.1293 80.8704 88.6855C80.3131 89.2425 79.6357 89.5532 78.8411 89.6159H78.7454H78.6979H78.4116C76.3425 89.5524 74.4005 89.1071 72.5863 88.2792C70.7721 87.4521 69.1906 86.3457 67.8441 84.9616C66.4976 83.5775 65.4313 81.9715 64.6452 80.1413C63.859 78.3118 63.4663 76.3462 63.4663 74.2466V61.8384C63.4663 61.0113 63.7549 60.3112 64.3328 59.7382C64.91 59.1658 65.6173 58.8789 66.4509 58.8789C67.2846 58.8789 67.9987 59.1651 68.592 59.7382C69.186 60.3112 69.483 61.0113 69.483 61.8384L69.4356 74.2482C69.4356 75.5206 69.6744 76.7142 70.1521 77.8275C70.6297 78.9415 71.2743 79.9201 72.0857 80.7625C72.8979 81.6065 73.8524 82.2897 74.9509 82.8146C76.0494 83.3395 77.219 83.6188 78.4606 83.6494H78.6995C79.527 83.6494 80.235 83.944 80.8245 84.5324C81.4108 85.1223 81.7055 85.83 81.7055 86.6571Z" fill="white"/>
<path d="M110.069 80.4761C110.069 81.7141 109.832 82.8878 109.358 83.9988C108.884 85.1098 108.245 86.0784 107.44 86.9025C106.633 87.7273 105.677 88.3861 104.568 88.878C103.46 89.3708 102.285 89.6156 101.044 89.6156H87.8646C87.0363 89.6156 86.3282 89.3241 85.7396 88.7403C85.1501 88.1565 84.8562 87.4541 84.8562 86.6331C84.8562 85.8129 85.1501 85.1105 85.7396 84.5267C86.3282 83.9429 87.0363 83.6507 87.8646 83.6507H100.948C101.808 83.6507 102.548 83.3385 103.169 82.7134C103.79 82.0882 104.1 81.343 104.1 80.4769C104.1 79.5794 103.79 78.8181 103.169 78.1937C102.548 77.5686 101.808 77.2549 100.948 77.2549H94.7409C93.4679 77.2549 92.2738 77.0162 91.16 76.5395C90.0454 76.062 89.0748 75.4101 88.2473 74.5823C87.419 73.7552 86.7669 72.785 86.2892 71.6709C85.8123 70.5577 85.5735 69.364 85.5735 68.0916C85.5735 66.8192 85.8123 65.6256 86.2892 64.5116C86.7669 63.3983 87.419 62.4281 88.2473 61.6002C89.0748 60.7731 90.0378 60.1128 91.1362 59.6193C92.2347 59.1258 93.4205 58.8794 94.6942 58.8794H100.758C101.586 58.8794 102.294 59.1717 102.883 59.7555C103.472 60.3393 103.767 61.0417 103.767 61.8619C103.767 62.6829 103.471 63.3853 102.88 63.9691C102.289 64.5529 101.577 64.8444 100.746 64.8444H94.6582C93.7955 64.8773 93.0607 65.2002 92.4536 65.8138C91.8466 66.4274 91.5427 67.1857 91.5427 68.0901C91.5427 68.9623 91.8451 69.7129 92.4498 70.3426C93.0545 70.9724 93.8024 71.2876 94.6942 71.2876H100.902C102.175 71.2876 103.369 71.5332 104.483 72.0252C105.597 72.5172 106.568 73.1759 107.396 74.0008C108.223 74.8256 108.876 75.7935 109.353 76.9044C109.83 78.0177 110.069 79.2067 110.069 80.4761Z" fill="white"/>
<path d="M120.383 57.3517C119.555 57.3517 118.855 57.0602 118.282 56.4764C117.709 55.8926 117.422 55.1902 117.422 54.3692C117.422 53.549 117.708 52.8466 118.282 52.2628C118.855 51.679 119.555 51.3867 120.383 51.3867C121.211 51.3867 121.919 51.679 122.508 52.2628C123.097 52.8466 123.391 53.549 123.391 54.3692C123.391 55.1902 123.097 55.8926 122.508 56.4764C121.919 57.0602 121.21 57.3517 120.383 57.3517ZM120.383 60.9318C121.211 60.9318 121.919 61.2264 122.508 61.8148C123.097 62.4039 123.391 63.1117 123.391 63.9388V86.5148C123.391 87.3427 123.097 88.0505 122.508 88.6389C121.919 89.228 121.211 89.5218 120.383 89.5218C119.555 89.5218 118.855 89.228 118.282 88.6389C117.709 88.0505 117.422 87.3427 117.422 86.5148V63.9388C117.422 63.1117 117.708 62.4039 118.282 61.8148C118.855 61.2264 119.555 60.9318 120.383 60.9318Z" fill="white"/>
<path d="M157.426 61.5995C158.51 62.3318 159.474 63.1833 160.319 64.1528C161.165 65.1237 161.873 66.1743 162.447 67.3028C163.022 68.4322 163.46 69.6258 163.763 70.8821C164.066 72.1393 164.201 73.4048 164.17 74.6772C164.106 76.3001 163.803 77.8831 163.263 79.4264C162.721 80.9704 161.957 82.3936 160.971 83.6982C159.729 85.321 158.217 86.6332 156.435 87.6355C154.651 88.6379 152.758 89.2668 150.752 89.5208C148.715 89.7756 146.718 89.6241 144.759 89.0671C142.802 88.5109 141.011 87.6279 139.387 86.4182V86.3708V94.2463C139.387 95.0734 139.098 95.7735 138.52 96.3458C137.943 96.9189 137.236 97.2051 136.403 97.2051C135.568 97.2051 134.862 96.9189 134.284 96.3458C133.707 95.7735 133.418 95.0734 133.418 94.2463V74.3428V74.0567C133.418 73.8027 133.426 73.5555 133.442 73.3168C133.457 73.0781 133.481 72.8317 133.513 72.5769C133.64 71.2724 133.951 70.0076 134.444 68.7826C134.939 67.5584 135.561 66.4199 136.31 65.3701C137.059 64.3196 137.936 63.3739 138.941 62.5299C139.945 61.6867 141.037 60.979 142.217 60.4059C144.672 59.2605 147.255 58.7915 149.965 58.9981C152.675 59.2054 155.162 60.0723 157.426 61.5995ZM158.201 74.9159C158.36 72.6886 157.803 70.6847 156.532 68.902C155.896 67.9792 155.125 67.2003 154.219 66.563C153.314 65.9271 152.336 65.465 151.287 65.1788C149.125 64.5751 147.042 64.7182 145.04 65.6088C145.295 65.4818 145.549 65.3625 145.804 65.2507C146.059 65.1398 146.315 65.0357 146.57 64.9401C146.251 65.0679 145.941 65.1957 145.639 65.3219C145.336 65.4497 145.042 65.5928 144.756 65.7511C143.577 66.2607 142.559 67.0243 141.7 68.042C140.585 69.3473 139.861 70.8423 139.527 72.5287C139.193 74.2158 139.311 75.8693 139.885 77.4921C140.33 78.7018 140.999 79.783 141.89 80.7378C142.781 81.6927 143.832 82.4403 145.042 82.9812C146.251 83.4908 147.507 83.7448 148.81 83.7448C150.112 83.7448 151.368 83.4747 152.576 82.933C153.084 82.679 153.568 82.4081 154.029 82.122C154.49 81.8358 154.927 81.5014 155.341 81.1196C156.167 80.2925 156.833 79.3468 157.342 78.2802C157.851 77.2152 158.137 76.0935 158.201 74.9159Z" fill="white"/>
<path d="M8.42652 59.9926H9.07259V55.5196C9.07259 54.3191 9.09785 53.378 9.14837 52.6963C9.19813 52.0146 9.33821 51.4277 9.56785 50.9372C9.7975 50.4284 10.1274 50.0145 10.5576 49.6962C10.9878 49.3779 11.4686 49.2188 11.9998 49.2188C12.7454 49.2188 13.4205 49.5738 14.023 50.2823C14.4241 50.7551 14.6798 51.3328 14.7869 52.0146C14.8949 52.6963 14.9485 53.665 14.9485 54.919V59.9926H20.6934C21.5255 59.9926 22.1601 60.2428 22.5979 60.7432C23.0358 61.2436 23.2547 61.8848 23.2547 62.666C23.2547 63.6668 22.9424 64.3669 22.3185 64.7663C21.6947 65.1665 19.4449 65.3662 18.2821 65.3662H14.9477V79.0598C14.9477 80.2236 14.9798 81.1195 15.0441 81.7469C15.1084 82.3744 15.2807 82.8839 15.5608 83.2749C15.841 83.6659 16.2957 83.861 16.9272 83.861C17.2717 83.861 17.7379 83.7837 18.3265 83.6292C18.9144 83.4746 19.3737 83.3973 19.7044 83.3973C20.1775 83.3973 20.6046 83.6384 20.9851 84.1204C21.3648 84.6024 21.5554 85.1977 21.5554 85.907C21.5554 87.1075 21.0387 88.0257 20.006 88.6622C18.9726 89.2981 17.4876 89.6171 15.5509 89.6171C13.7137 89.6171 12.3221 89.2262 11.3752 88.4442C10.4283 87.6622 9.80745 86.5803 9.51351 85.1985C9.21956 83.8166 9.07182 81.9704 9.07182 79.6612V65.3662H8.29715C7.45052 65.3662 5.34467 65.1114 4.89993 64.6026C4.45518 64.0937 4.23242 63.448 4.23242 62.666C4.23242 61.8848 4.46513 61.2436 4.93208 60.7432C5.39826 60.2428 7.53626 59.9926 8.42652 59.9926Z" fill="white"/>
<path d="M107.737 23.6042C105.119 20.6761 101.401 18.9446 97.4853 18.8145C96.6034 15.946 94.8841 13.4777 92.4958 11.6589C89.9843 9.7461 86.9683 8.73535 83.7747 8.73535C78.2486 8.73535 73.3105 11.8051 70.8869 16.7463C70.5915 17.3485 70.5739 18.0486 70.838 18.6668C71.1028 19.2873 71.6233 19.761 72.2663 19.9652C73.3656 20.3157 74.536 19.8122 75.0504 18.7686C76.6947 15.4333 80.0376 13.3614 83.7747 13.3614C87.7774 13.3614 91.3361 15.7792 92.7997 19.4335C90.7291 20.0655 88.8123 21.1673 87.2262 22.6417C86.7356 23.0977 86.4676 23.7442 86.4929 24.4153C86.5174 25.0878 86.8328 25.7152 87.3625 26.1391C88.2619 26.8599 89.5403 26.8056 90.4007 26.0098C92.2004 24.3464 94.5481 23.4305 97.0114 23.4305C99.7855 23.4305 102.437 24.6173 104.287 26.6862C106.161 28.7834 107.019 31.4951 106.699 34.3215C106.147 39.2275 101.969 42.927 96.9831 42.927C96.9326 42.927 96.8813 42.9262 96.8315 42.9254C90.6028 42.8336 86.7608 36.7538 84.9137 33.831C83.3138 31.2992 81.5004 28.573 80.5619 27.1736C79.9312 26.2332 79.2828 25.4413 78.5801 24.7535C76.1343 22.3586 73.2339 21.1948 69.7127 21.1948C66.1892 21.1948 62.9022 22.5927 60.458 25.1299C58.0145 27.6671 56.7431 31.0054 56.877 34.5319C57.1281 41.1434 62.5026 46.5583 69.1133 46.8597C72.0421 46.9921 74.9563 46.1122 77.317 44.3807C77.8513 43.989 78.1843 43.3837 78.231 42.7211C78.2777 42.0539 78.0305 41.4028 77.5513 40.9361L77.4824 40.8695C76.6909 40.0975 75.4531 40.0171 74.5398 40.679C73.0364 41.7685 71.1847 42.3233 69.3238 42.2376C65.0983 42.0448 61.6621 38.5825 61.5021 34.3559C61.4164 32.098 62.2293 29.961 63.7924 28.3389C65.3563 26.7153 67.4583 25.8216 69.7127 25.8216C72.0252 25.8216 73.7613 26.5117 75.3413 28.0588C75.8151 28.5225 76.2652 29.0757 76.7169 29.7498C77.6431 31.1309 79.4305 33.818 80.9998 36.3016C83.1026 39.6292 88.0262 47.4229 96.7611 47.5514C96.8361 47.553 96.9096 47.553 96.9846 47.553C104.328 47.553 110.482 42.0868 111.299 34.8387C111.76 30.7475 110.462 26.6518 107.737 23.6042Z" fill="white"/>
<path d="M13.2641 111.264C12.618 111.264 12.0217 111.155 11.4744 110.939C10.9271 110.722 10.4525 110.417 10.0521 110.026C9.65177 109.633 9.33869 109.172 9.1144 108.641C8.88935 108.11 8.77759 107.53 8.77759 106.901C8.77759 106.272 8.89011 105.692 9.1144 105.16C9.33945 104.629 9.65407 104.168 10.0582 103.775C10.4632 103.383 10.9386 103.079 11.4866 102.863C12.034 102.646 12.631 102.538 13.2763 102.538C13.8972 102.538 14.482 102.642 15.0293 102.85C15.5766 103.058 16.039 103.371 16.4148 103.788L15.8384 104.364C15.4871 104.004 15.099 103.745 14.6734 103.586C14.2485 103.426 13.7908 103.347 13.3001 103.347C12.7849 103.347 12.3072 103.435 11.8656 103.61C11.4239 103.786 11.0396 104.035 10.7127 104.358C10.3859 104.68 10.1302 105.056 9.94648 105.485C9.76277 105.914 9.67091 106.386 9.67091 106.901C9.67091 107.416 9.76277 107.887 9.94648 108.316C10.1302 108.746 10.3859 109.121 10.7127 109.443C11.0396 109.766 11.4239 110.015 11.8656 110.191C12.3072 110.367 12.7849 110.455 13.3001 110.455C13.7908 110.455 14.2485 110.373 14.6734 110.209C15.0982 110.046 15.4863 109.785 15.8384 109.425L16.4148 110.001C16.039 110.418 15.5766 110.733 15.0293 110.945C14.482 111.158 13.8933 111.264 13.2641 111.264Z" fill="white"/>
<path d="M18.4751 111.19V102.096H19.3455V111.19H18.4751Z" fill="white"/>
<path d="M24.7027 111.251C24.0819 111.251 23.5238 111.111 23.0293 110.829C22.5348 110.547 22.1444 110.159 21.8581 109.665C21.5719 109.17 21.4287 108.605 21.4287 107.968C21.4287 107.323 21.5719 106.754 21.8581 106.264C22.1444 105.774 22.5325 105.391 23.0232 105.113C23.5139 104.835 24.0735 104.696 24.7027 104.696C25.3403 104.696 25.906 104.835 26.4005 105.113C26.895 105.391 27.2831 105.775 27.5656 106.264C27.8473 106.755 27.9889 107.323 27.9889 107.968C27.9889 108.605 27.8481 109.17 27.5656 109.665C27.2839 110.159 26.8927 110.547 26.3944 110.829C25.8961 111.111 25.3319 111.251 24.7027 111.251ZM24.7027 110.479C25.1689 110.479 25.5815 110.375 25.9412 110.167C26.301 109.959 26.585 109.665 26.7932 109.285C27.0014 108.906 27.1056 108.466 27.1056 107.968C27.1056 107.461 27.0014 107.02 26.7932 106.644C26.585 106.268 26.301 105.976 25.9412 105.768C25.5815 105.56 25.1727 105.456 24.7149 105.456C24.2572 105.456 23.8484 105.56 23.4886 105.768C23.1289 105.976 22.8426 106.268 22.6305 106.644C22.4177 107.02 22.3113 107.461 22.3113 107.968C22.3113 108.466 22.4177 108.905 22.6305 109.285C22.8433 109.665 23.1289 109.959 23.4886 110.167C23.8484 110.375 24.2534 110.479 24.7027 110.479Z" fill="white"/>
<path d="M32.7335 111.251C32.1862 111.251 31.7078 111.15 31.299 110.945C30.8903 110.741 30.5733 110.435 30.3491 110.026C30.124 109.618 30.0115 109.107 30.0115 108.495V104.757H30.8818V108.397C30.8818 109.083 31.0518 109.599 31.3909 109.947C31.73 110.294 32.2061 110.468 32.8193 110.468C33.2686 110.468 33.659 110.376 33.9905 110.192C34.3219 110.009 34.5745 109.741 34.7506 109.39C34.9267 109.039 35.0139 108.618 35.0139 108.127V104.758H35.8843V111.192H35.0507V109.427L35.1854 109.746C34.981 110.22 34.6641 110.589 34.2354 110.855C33.806 111.119 33.3054 111.251 32.7335 111.251Z" fill="white"/>
<path d="M41.1817 111.251C40.5685 111.251 40.0189 111.113 39.5328 110.835C39.0468 110.557 38.664 110.171 38.3869 109.676C38.109 109.182 37.9697 108.612 37.9697 107.967C37.9697 107.314 38.1083 106.741 38.3869 106.252C38.6648 105.761 39.0468 105.379 39.5328 105.105C40.0189 104.832 40.5693 104.695 41.1817 104.695C41.7459 104.695 42.2503 104.822 42.6958 105.075C43.1413 105.328 43.4965 105.698 43.7629 106.184C44.0285 106.669 44.161 107.264 44.161 107.967C44.161 108.662 44.0301 109.254 43.7683 109.744C43.5065 110.233 43.1528 110.608 42.7081 110.865C42.2626 111.122 41.7535 111.251 41.1817 111.251ZM41.2429 110.479C41.7007 110.479 42.111 110.375 42.4754 110.167C42.839 109.959 43.1253 109.664 43.3335 109.285C43.5417 108.905 43.6458 108.466 43.6458 107.967C43.6458 107.461 43.5417 107.019 43.3335 106.643C43.1253 106.268 42.839 105.975 42.4754 105.767C42.1118 105.559 41.7007 105.455 41.2429 105.455C40.7936 105.455 40.3887 105.559 40.0289 105.767C39.6691 105.975 39.3828 106.268 39.1708 106.643C38.958 107.019 38.8516 107.461 38.8516 107.967C38.8516 108.466 38.958 108.904 39.1708 109.285C39.3836 109.664 39.6691 109.959 40.0289 110.167C40.3887 110.375 40.7928 110.479 41.2429 110.479ZM43.6703 111.19V109.253L43.756 107.954L43.6336 106.655V102.096H44.5039V111.19H43.6703Z" fill="white"/>
<path d="M54.6679 111.264C54.0218 111.264 53.4255 111.155 52.8782 110.939C52.3309 110.722 51.8563 110.417 51.4559 110.026C51.0556 109.633 50.7425 109.172 50.5182 108.641C50.2932 108.11 50.1814 107.53 50.1814 106.901C50.1814 106.272 50.2939 105.692 50.5182 105.16C50.7433 104.629 51.0579 104.168 51.4621 103.775C51.867 103.383 52.3424 103.079 52.8905 102.863C53.4378 102.646 54.0349 102.538 54.6802 102.538C55.301 102.538 55.8858 102.642 56.4331 102.85C56.9804 103.058 57.4428 103.371 57.8186 103.788L57.2422 104.364C56.8909 104.004 56.5028 103.745 56.0772 103.586C55.6523 103.426 55.1946 103.347 54.7039 103.347C54.1887 103.347 53.7111 103.435 53.2694 103.61C52.8277 103.786 52.4434 104.035 52.1165 104.358C51.7897 104.68 51.534 105.056 51.3503 105.485C51.1666 105.914 51.0747 106.386 51.0747 106.901C51.0747 107.416 51.1666 107.887 51.3503 108.316C51.534 108.746 51.7897 109.121 52.1165 109.443C52.4434 109.766 52.8277 110.015 53.2694 110.191C53.7111 110.367 54.1887 110.455 54.7039 110.455C55.1946 110.455 55.6523 110.373 56.0772 110.209C56.502 110.046 56.8901 109.785 57.2422 109.425L57.8186 110.001C57.4428 110.418 56.9804 110.733 56.4331 110.945C55.8858 111.158 55.2971 111.264 54.6679 111.264Z" fill="white"/>
<path d="M62.2198 111.251C61.599 111.251 61.0409 111.111 60.5464 110.829C60.0519 110.547 59.6615 110.159 59.3752 109.665C59.0889 109.17 58.9458 108.605 58.9458 107.968C58.9458 107.323 59.0889 106.754 59.3752 106.264C59.6615 105.774 60.0496 105.391 60.5403 105.113C61.031 104.835 61.5906 104.696 62.2198 104.696C62.8574 104.696 63.4231 104.835 63.9176 105.113C64.4121 105.391 64.8002 105.775 65.0827 106.264C65.3644 106.755 65.506 107.323 65.506 107.968C65.506 108.605 65.3652 109.17 65.0827 109.665C64.801 110.159 64.4098 110.547 63.9115 110.829C63.4132 111.111 62.849 111.251 62.2198 111.251ZM62.2198 110.479C62.686 110.479 63.0986 110.375 63.4583 110.167C63.8181 109.959 64.1021 109.665 64.3103 109.285C64.5185 108.906 64.6226 108.466 64.6226 107.968C64.6226 107.461 64.5185 107.02 64.3103 106.644C64.1021 106.268 63.8181 105.976 63.4583 105.768C63.0986 105.56 62.6898 105.456 62.232 105.456C61.7743 105.456 61.3655 105.56 61.0057 105.768C60.6459 105.976 60.3597 106.268 60.1476 106.644C59.9348 107.02 59.8284 107.461 59.8284 107.968C59.8284 108.466 59.9348 108.905 60.1476 109.285C60.3604 109.665 60.6459 109.959 61.0057 110.167C61.3655 110.375 61.7704 110.479 62.2198 110.479Z" fill="white"/>
<path d="M75.6338 104.695C76.1566 104.695 76.6128 104.795 77.0009 104.995C77.389 105.196 77.6914 105.5 77.908 105.908C78.1247 106.317 78.2326 106.832 78.2326 107.452V111.19H77.3622V107.538C77.3622 106.86 77.2007 106.347 76.8777 106C76.5547 105.653 76.0992 105.479 75.5105 105.479C75.0688 105.479 74.6869 105.571 74.3646 105.754C74.0416 105.938 73.792 106.203 73.6167 106.551C73.4407 106.898 73.3534 107.317 73.3534 107.807V111.19H72.483V107.538C72.483 106.86 72.3192 106.347 71.9924 106C71.6655 105.653 71.2077 105.479 70.6191 105.479C70.1858 105.479 69.8054 105.571 69.4785 105.754C69.1516 105.938 68.8998 106.203 68.7245 106.551C68.5484 106.898 68.4612 107.317 68.4612 107.807V111.19H67.5908V104.756H68.4244V106.496L68.2897 106.19C68.4857 105.724 68.8026 105.358 69.2397 105.092C69.6768 104.827 70.1942 104.694 70.7906 104.694C71.4198 104.694 71.9556 104.851 72.3965 105.166C72.8382 105.48 73.1237 105.952 73.2546 106.581L72.9117 106.447C73.1 105.923 73.433 105.501 73.9107 105.178C74.3891 104.856 74.9632 104.695 75.6338 104.695Z" fill="white"/>
<path d="M88.9485 104.695C89.4713 104.695 89.9275 104.795 90.3156 104.995C90.7037 105.196 91.0061 105.5 91.2227 105.908C91.4394 106.317 91.5473 106.832 91.5473 107.452V111.19H90.6769V107.538C90.6769 106.86 90.5154 106.347 90.1924 106C89.8693 105.653 89.4139 105.479 88.8252 105.479C88.3835 105.479 88.0016 105.571 87.6793 105.754C87.3563 105.938 87.1067 106.203 86.9314 106.551C86.7554 106.898 86.6681 107.317 86.6681 107.807V111.19H85.7977V107.538C85.7977 106.86 85.6339 106.347 85.3071 106C84.9802 105.653 84.5224 105.479 83.9338 105.479C83.5005 105.479 83.1201 105.571 82.7932 105.754C82.4663 105.938 82.2145 106.203 82.0392 106.551C81.8631 106.898 81.7759 107.317 81.7759 107.807V111.19H80.9055V104.756H81.7391V106.496L81.6044 106.19C81.8004 105.724 82.1173 105.358 82.5544 105.092C82.9915 104.827 83.5089 104.694 84.1052 104.694C84.7345 104.694 85.2703 104.851 85.7112 105.166C86.1529 105.48 86.4384 105.952 86.5693 106.581L86.2264 106.447C86.4147 105.923 86.7477 105.501 87.2254 105.178C87.7038 104.856 88.2779 104.695 88.9485 104.695Z" fill="white"/>
<path d="M96.8805 111.251C96.3332 111.251 95.8548 111.15 95.446 110.945C95.0372 110.741 94.7203 110.435 94.496 110.026C94.271 109.618 94.1584 109.107 94.1584 108.495V104.757H95.0288V108.397C95.0288 109.083 95.1987 109.599 95.5378 109.947C95.877 110.294 96.3531 110.468 96.9662 110.468C97.4156 110.468 97.806 110.376 98.1374 110.192C98.4689 110.009 98.7215 109.741 98.8976 109.39C99.0736 109.039 99.1609 108.618 99.1609 108.127V104.758H100.031V111.192H99.1976V109.427L99.3324 109.746C99.128 110.22 98.8111 110.589 98.3824 110.855C97.9537 111.119 97.4531 111.251 96.8805 111.251Z" fill="white"/>
<path d="M106.052 104.695C106.574 104.695 107.034 104.795 107.431 104.996C107.828 105.196 108.138 105.5 108.363 105.908C108.587 106.317 108.699 106.832 108.699 107.452V111.19H107.829V107.538C107.829 106.86 107.659 106.348 107.32 106C106.981 105.653 106.505 105.479 105.892 105.479C105.434 105.479 105.035 105.571 104.696 105.755C104.357 105.938 104.095 106.204 103.911 106.551C103.728 106.898 103.636 107.317 103.636 107.807V111.19H102.765V104.756H103.599V106.52L103.464 106.19C103.669 105.724 103.996 105.358 104.445 105.093C104.895 104.828 105.43 104.695 106.052 104.695Z" fill="white"/>
<path d="M111.802 103.334C111.622 103.334 111.471 103.273 111.348 103.151C111.226 103.028 111.164 102.881 111.164 102.709C111.164 102.538 111.226 102.392 111.348 102.274C111.471 102.156 111.622 102.096 111.802 102.096C111.982 102.096 112.133 102.154 112.256 102.268C112.378 102.382 112.44 102.525 112.44 102.697C112.44 102.877 112.38 103.028 112.262 103.151C112.143 103.273 111.99 103.334 111.802 103.334ZM111.36 111.19V104.756H112.231V111.19H111.36Z" fill="white"/>
<path d="M117.637 111.251C117 111.251 116.43 111.111 115.927 110.829C115.424 110.547 115.03 110.159 114.744 109.665C114.458 109.17 114.314 108.605 114.314 107.968C114.314 107.323 114.458 106.754 114.744 106.264C115.03 105.774 115.424 105.391 115.927 105.113C116.43 104.835 117.001 104.696 117.637 104.696C118.185 104.696 118.679 104.802 119.121 105.015C119.563 105.228 119.909 105.546 120.163 105.971L119.513 106.412C119.292 106.085 119.018 105.844 118.692 105.689C118.365 105.534 118.009 105.456 117.624 105.456C117.167 105.456 116.754 105.56 116.386 105.769C116.018 105.977 115.728 106.269 115.516 106.645C115.303 107.02 115.196 107.462 115.196 107.968C115.196 108.475 115.303 108.916 115.516 109.292C115.728 109.668 116.018 109.96 116.386 110.168C116.754 110.376 117.167 110.48 117.624 110.48C118.009 110.48 118.364 110.403 118.692 110.248C119.018 110.092 119.292 109.855 119.513 109.537L120.163 109.978C119.909 110.394 119.562 110.711 119.121 110.928C118.68 111.144 118.186 111.251 117.637 111.251Z" fill="white"/>
<path d="M123.989 111.251C123.506 111.251 123.088 111.172 122.732 111.013C122.376 110.853 122.104 110.633 121.916 110.351C121.728 110.069 121.635 109.744 121.635 109.377C121.635 109.042 121.714 108.738 121.874 108.464C122.033 108.191 122.295 107.97 122.658 107.802C123.022 107.634 123.51 107.551 124.123 107.551H126.343V108.201H124.148C123.527 108.201 123.095 108.311 122.854 108.532C122.613 108.752 122.492 109.026 122.492 109.353C122.492 109.721 122.635 110.015 122.922 110.235C123.208 110.456 123.608 110.566 124.123 110.566C124.614 110.566 125.037 110.454 125.393 110.23C125.748 110.006 126.007 109.68 126.171 109.256L126.367 109.856C126.203 110.281 125.919 110.62 125.515 110.873C125.111 111.125 124.602 111.251 123.989 111.251ZM126.208 111.19V109.768L126.171 109.536V107.159C126.171 106.611 126.018 106.191 125.711 105.896C125.405 105.602 124.949 105.455 124.344 105.455C123.927 105.455 123.531 105.524 123.154 105.663C122.778 105.801 122.459 105.986 122.198 106.214L121.805 105.565C122.132 105.287 122.524 105.073 122.983 104.921C123.441 104.77 123.923 104.695 124.43 104.695C125.263 104.695 125.907 104.901 126.361 105.314C126.815 105.726 127.041 106.354 127.041 107.195V111.19H126.208Z" fill="white"/>
<path d="M128.709 105.479V104.756H132.695V105.479H128.709ZM131.75 111.251C131.145 111.251 130.679 111.088 130.352 110.761C130.025 110.434 129.862 109.973 129.862 109.376V103.334H130.732V109.327C130.732 109.703 130.828 109.993 131.02 110.197C131.212 110.401 131.487 110.504 131.847 110.504C132.231 110.504 132.55 110.394 132.803 110.172L133.109 110.798C132.938 110.953 132.731 111.067 132.49 111.141C132.251 111.215 132.003 111.251 131.75 111.251Z" fill="white"/>
<path d="M135.44 103.334C135.26 103.334 135.109 103.273 134.986 103.151C134.864 103.028 134.802 102.881 134.802 102.709C134.802 102.538 134.864 102.392 134.986 102.274C135.109 102.156 135.26 102.096 135.44 102.096C135.62 102.096 135.772 102.154 135.894 102.268C136.017 102.382 136.078 102.525 136.078 102.697C136.078 102.877 136.018 103.028 135.9 103.151C135.781 103.273 135.628 103.334 135.44 103.334ZM134.998 111.19V104.756H135.869V111.19H134.998Z" fill="white"/>
<path d="M141.226 111.251C140.606 111.251 140.048 111.111 139.553 110.829C139.059 110.547 138.668 110.159 138.382 109.665C138.096 109.17 137.952 108.605 137.952 107.968C137.952 107.323 138.096 106.754 138.382 106.264C138.668 105.774 139.056 105.391 139.547 105.113C140.038 104.835 140.597 104.696 141.226 104.696C141.864 104.696 142.43 104.835 142.924 105.113C143.419 105.391 143.807 105.775 144.089 106.264C144.371 106.755 144.513 107.323 144.513 107.968C144.513 108.605 144.372 109.17 144.089 109.665C143.808 110.159 143.416 110.547 142.918 110.829C142.42 111.111 141.856 111.251 141.226 111.251ZM141.226 110.479C141.693 110.479 142.105 110.375 142.465 110.167C142.825 109.959 143.109 109.665 143.317 109.285C143.525 108.906 143.629 108.466 143.629 107.968C143.629 107.461 143.525 107.02 143.317 106.644C143.109 106.268 142.825 105.976 142.465 105.768C142.105 105.56 141.696 105.456 141.239 105.456C140.781 105.456 140.372 105.56 140.012 105.768C139.653 105.976 139.366 106.268 139.154 106.644C138.941 107.02 138.835 107.461 138.835 107.968C138.835 108.466 138.941 108.905 139.154 109.285C139.367 109.665 139.653 109.959 140.012 110.167C140.373 110.375 140.777 110.479 141.226 110.479Z" fill="white"/>
<path d="M149.883 104.695C150.405 104.695 150.866 104.795 151.262 104.996C151.659 105.196 151.969 105.5 152.194 105.908C152.418 106.317 152.53 106.832 152.53 107.452V111.19H151.66V107.538C151.66 106.86 151.49 106.348 151.151 106C150.812 105.653 150.336 105.479 149.723 105.479C149.265 105.479 148.866 105.571 148.527 105.755C148.188 105.938 147.926 106.204 147.742 106.551C147.559 106.898 147.467 107.317 147.467 107.807V111.19H146.596V104.756H147.43V106.52L147.295 106.19C147.5 105.724 147.827 105.358 148.276 105.093C148.726 104.828 149.262 104.695 149.883 104.695Z" fill="white"/>
<path d="M156.92 111.251C156.389 111.251 155.886 111.176 155.412 111.025C154.939 110.873 154.567 110.684 154.296 110.455L154.689 109.768C154.951 109.964 155.285 110.134 155.695 110.277C156.104 110.42 156.532 110.491 156.982 110.491C157.596 110.491 158.037 110.396 158.307 110.204C158.576 110.012 158.712 109.756 158.712 109.438C158.712 109.201 158.636 109.015 158.485 108.88C158.334 108.745 158.136 108.644 157.89 108.574C157.645 108.504 157.371 108.446 157.069 108.397C156.767 108.348 156.467 108.29 156.168 108.225C155.869 108.16 155.598 108.064 155.353 107.937C155.108 107.81 154.91 107.637 154.758 107.416C154.606 107.195 154.531 106.901 154.531 106.533C154.531 106.182 154.629 105.868 154.825 105.59C155.021 105.312 155.31 105.093 155.69 104.934C156.07 104.774 156.533 104.695 157.081 104.695C157.498 104.695 157.915 104.75 158.332 104.86C158.749 104.97 159.092 105.116 159.362 105.295L158.981 105.994C158.695 105.798 158.389 105.657 158.062 105.571C157.735 105.485 157.408 105.442 157.081 105.442C156.501 105.442 156.074 105.543 155.8 105.743C155.526 105.944 155.389 106.198 155.389 106.509C155.389 106.754 155.465 106.946 155.615 107.085C155.766 107.224 155.967 107.332 156.216 107.41C156.466 107.488 156.739 107.551 157.038 107.6C157.336 107.649 157.634 107.709 157.932 107.778C158.231 107.847 158.504 107.941 158.754 108.06C159.003 108.178 159.203 108.346 159.355 108.562C159.506 108.778 159.581 109.062 159.581 109.413C159.581 109.789 159.477 110.114 159.269 110.387C159.061 110.661 158.758 110.873 158.362 111.025C157.965 111.176 157.485 111.251 156.92 111.251Z" fill="white"/>
</g>
<defs>
<clipPath id="clip0_5504_50895">
<rect width="168.407" height="120" fill="white"/>
</clipPath>
</defs>
</svg>
