<svg width="169" height="120" viewBox="0 0 169 120" fill="none" xmlns="http://www.w3.org/2000/svg">
<g clip-path="url(#clip0_2763_17055)">
<path d="M58.9291 74.2955C58.8969 75.1234 58.5869 75.8235 57.9982 76.3958C57.4088 76.9689 56.7007 77.2711 55.8732 77.3025H34.6241C34.7512 77.6843 34.9265 78.0821 35.1493 78.4961C35.3085 78.8144 35.4669 79.1166 35.6269 79.4028C35.7861 79.6889 35.9446 79.9751 36.1046 80.262C35.9446 80.008 35.8014 79.7608 35.6744 79.5221C35.5473 79.2834 35.4195 79.0378 35.2924 78.7822C35.8014 79.705 36.4544 80.5321 37.2505 81.2643C38.0459 81.9966 38.9376 82.5697 39.9244 82.9821C40.9746 83.4281 42.1366 83.6822 43.4096 83.7457H43.601C44.4285 83.7457 45.1205 84.0242 45.6777 84.5804C46.2342 85.1375 46.5137 85.8299 46.5137 86.657C46.5137 87.4849 46.2342 88.1842 45.6777 88.7573C45.1205 89.3296 44.4285 89.6166 43.601 89.6166C43.4096 89.6166 43.2267 89.6166 43.0514 89.6166C42.8761 89.6166 42.7092 89.6005 42.55 89.5691C41.2127 89.4742 39.9075 89.2034 38.6345 88.7581C37.3615 88.3128 36.1758 87.732 35.0773 87.0159C33.9788 86.3005 32.9837 85.4496 32.0927 84.4626C31.2009 83.4763 30.453 82.3784 29.8483 81.1695C28.6702 78.783 28.1366 76.2619 28.2484 73.6046C28.3594 70.9488 29.1157 68.4904 30.5165 66.231C30.6436 66.0404 30.7791 65.8415 30.9222 65.6342C31.0654 65.4276 31.2162 65.2286 31.3762 65.0373C32.5535 63.4466 33.9857 62.1497 35.6736 61.1474C37.3607 60.1451 39.1596 59.4695 41.0695 59.119C43.5206 58.7372 45.9395 58.9285 48.3279 59.6921C50.7154 60.4557 52.7684 61.7289 54.4877 63.5101C55.8878 64.9417 56.9778 66.5646 57.7586 68.3779C58.5387 70.1913 58.9283 72.1011 58.9283 74.1057V74.2014V74.2955H58.9291ZM38.5396 66.2769C37.6156 66.8813 36.8203 67.6212 36.152 68.4965C35.4838 69.3718 34.974 70.3183 34.6241 71.3359H52.5786C52.4186 70.8585 52.1966 70.3497 51.9103 69.8087C51.3048 68.6633 50.4858 67.6847 49.4516 66.8737C48.4166 66.0626 47.2623 65.4819 45.9893 65.1315C44.7477 64.7818 43.4739 64.7099 42.1695 64.9165C40.8628 65.1238 39.6534 65.5775 38.5396 66.2769Z" fill="#117EC2"/>
<path d="M81.706 86.6569C81.706 87.4526 81.4274 88.129 80.8709 88.6853C80.3136 89.2423 79.6361 89.5529 78.8416 89.6157H78.7459H78.6984H78.4121C76.343 89.5522 74.401 89.1069 72.5868 88.279C70.7726 87.4519 69.1911 86.3455 67.8446 84.9614C66.4981 83.5772 65.4318 81.9712 64.6456 80.141C63.8595 78.3116 63.4668 76.3459 63.4668 74.2464V61.8382C63.4668 61.0111 63.7554 60.311 64.3333 59.7379C64.9105 59.1656 65.6178 58.8787 66.4514 58.8787C67.285 58.8787 67.9992 59.1648 68.5925 59.7379C69.1865 60.311 69.4835 61.0111 69.4835 61.8382L69.4361 74.2479C69.4361 75.5204 69.6749 76.714 70.1525 77.8272C70.6302 78.9413 71.2748 79.9199 72.0862 80.7623C72.8983 81.6062 73.8529 82.2895 74.9514 82.8144C76.0498 83.3393 77.2195 83.6185 78.4611 83.6492H78.7C79.5274 83.6492 80.2355 83.9437 80.8249 84.5321C81.4113 85.122 81.706 85.8298 81.706 86.6569Z" fill="#117EC2"/>
<path d="M110.07 80.4761C110.07 81.7141 109.832 82.8878 109.359 83.9988C108.885 85.1098 108.246 86.0784 107.44 86.9025C106.634 87.7273 105.678 88.3861 104.569 88.878C103.461 89.3708 102.286 89.6156 101.045 89.6156H87.8653C87.037 89.6156 86.329 89.3241 85.7403 88.7403C85.1509 88.1565 84.8569 87.4541 84.8569 86.6331C84.8569 85.8129 85.1509 85.1105 85.7403 84.5267C86.329 83.9429 87.037 83.6507 87.8653 83.6507H100.949C101.809 83.6507 102.549 83.3385 103.17 82.7134C103.79 82.0882 104.1 81.343 104.1 80.4769C104.1 79.5794 103.79 78.8181 103.17 78.1937C102.549 77.5686 101.809 77.2549 100.949 77.2549H94.7416C93.4686 77.2549 92.2745 77.0162 91.1607 76.5395C90.0462 76.062 89.0755 75.4101 88.248 74.5823C87.4198 73.7552 86.7676 72.785 86.2899 71.6709C85.813 70.5577 85.5742 69.364 85.5742 68.0916C85.5742 66.8192 85.813 65.6256 86.2899 64.5116C86.7676 63.3983 87.4198 62.4281 88.248 61.6002C89.0755 60.7731 90.0385 60.1128 91.137 59.6193C92.2354 59.1258 93.4212 58.8794 94.695 58.8794H100.759C101.587 58.8794 102.295 59.1717 102.884 59.7555C103.473 60.3393 103.767 61.0417 103.767 61.8619C103.767 62.6829 103.471 63.3853 102.88 63.9691C102.289 64.5529 101.578 64.8444 100.747 64.8444H94.659C93.7963 64.8773 93.0614 65.2002 92.4544 65.8138C91.8473 66.4274 91.5434 67.1857 91.5434 68.0901C91.5434 68.9623 91.8458 69.7129 92.4505 70.3426C93.0553 70.9724 93.8032 71.2876 94.695 71.2876H100.902C102.175 71.2876 103.369 71.5332 104.484 72.0252C105.598 72.5172 106.568 73.1759 107.397 74.0008C108.224 74.8256 108.877 75.7935 109.354 76.9044C109.831 78.0177 110.07 79.2067 110.07 80.4761Z" fill="#117EC2"/>
<path d="M120.384 57.3515C119.555 57.3515 118.856 57.06 118.282 56.4762C117.71 55.8924 117.423 55.19 117.423 54.369C117.423 53.5488 117.709 52.8464 118.282 52.2626C118.856 51.6788 119.555 51.3865 120.384 51.3865C121.211 51.3865 121.919 51.6788 122.509 52.2626C123.097 52.8464 123.392 53.5488 123.392 54.369C123.392 55.19 123.097 55.8924 122.509 56.4762C121.919 57.06 121.21 57.3515 120.384 57.3515ZM120.384 60.9315C121.211 60.9315 121.919 61.2261 122.509 61.8145C123.097 62.4037 123.392 63.1114 123.392 63.9385V86.5146C123.392 87.3425 123.097 88.0502 122.509 88.6386C121.919 89.2278 121.211 89.5216 120.384 89.5216C119.555 89.5216 118.856 89.2278 118.282 88.6386C117.71 88.0502 117.423 87.3425 117.423 86.5146V63.9385C117.423 63.1114 117.709 62.4037 118.282 61.8145C118.856 61.2261 119.555 60.9315 120.384 60.9315Z" fill="#117EC2"/>
<path d="M157.426 61.5995C158.51 62.3318 159.475 63.1833 160.32 64.1528C161.165 65.1237 161.874 66.1743 162.448 67.3028C163.022 68.4322 163.461 69.6258 163.764 70.8821C164.067 72.1393 164.202 73.4048 164.17 74.6772C164.106 76.3001 163.804 77.8831 163.263 79.4264C162.721 80.9704 161.957 82.3936 160.971 83.6982C159.73 85.321 158.218 86.6332 156.435 87.6355C154.651 88.6379 152.758 89.2668 150.753 89.5208C148.715 89.7756 146.718 89.6241 144.76 89.0671C142.803 88.5109 141.011 87.6279 139.388 86.4182V86.3708V94.2463C139.388 95.0734 139.098 95.7735 138.52 96.3458C137.943 96.9189 137.237 97.2051 136.403 97.2051C135.569 97.2051 134.862 96.9189 134.284 96.3458C133.707 95.7735 133.418 95.0734 133.418 94.2463V74.3428V74.0567C133.418 73.8027 133.426 73.5555 133.442 73.3168C133.457 73.0781 133.481 72.8317 133.513 72.5769C133.64 71.2724 133.951 70.0076 134.445 68.7826C134.939 67.5584 135.561 66.4199 136.31 65.3701C137.06 64.3196 137.936 63.3739 138.941 62.5299C139.946 61.6867 141.037 60.979 142.218 60.4059C144.673 59.2605 147.255 58.7915 149.965 58.9981C152.676 59.2054 155.163 60.0723 157.426 61.5995ZM158.201 74.9159C158.36 72.6886 157.803 70.6847 156.532 68.902C155.897 67.9792 155.125 67.2003 154.22 66.563C153.314 65.9271 152.337 65.465 151.287 65.1788C149.125 64.5751 147.043 64.7182 145.04 65.6088C145.296 65.4818 145.55 65.3625 145.805 65.2507C146.06 65.1398 146.315 65.0357 146.57 64.9401C146.252 65.0679 145.942 65.1957 145.639 65.3219C145.336 65.4497 145.042 65.5928 144.756 65.7511C143.578 66.2607 142.56 67.0243 141.7 68.042C140.586 69.3473 139.862 70.8423 139.527 72.5287C139.193 74.2158 139.312 75.8693 139.885 77.4921C140.331 78.7018 140.999 79.783 141.891 80.7378C142.782 81.6927 143.832 82.4403 145.042 82.9812C146.251 83.4908 147.508 83.7448 148.81 83.7448C150.113 83.7448 151.368 83.4747 152.576 82.933C153.085 82.679 153.568 82.4081 154.03 82.122C154.491 81.8358 154.928 81.5014 155.341 81.1196C156.167 80.2925 156.834 79.3468 157.343 78.2802C157.851 77.2152 158.138 76.0935 158.201 74.9159Z" fill="#117EC2"/>
<path d="M8.427 59.9926H9.07307V55.5196C9.07307 54.3191 9.09834 53.378 9.14886 52.6963C9.19861 52.0146 9.3387 51.4277 9.56834 50.9372C9.79799 50.4284 10.1279 50.0145 10.5581 49.6962C10.9883 49.3779 11.469 49.2188 12.0003 49.2188C12.7459 49.2188 13.421 49.5738 14.0235 50.2823C14.4246 50.7551 14.6803 51.3328 14.7874 52.0146C14.8954 52.6963 14.9489 53.665 14.9489 54.919V59.9926H20.6939C21.526 59.9926 22.1606 60.2428 22.5984 60.7432C23.0363 61.2436 23.2552 61.8848 23.2552 62.666C23.2552 63.6668 22.9429 64.3669 22.319 64.7663C21.6952 65.1665 19.4454 65.3662 18.2826 65.3662H14.9482V79.0598C14.9482 80.2236 14.9803 81.1195 15.0446 81.7469C15.1089 82.3744 15.2812 82.8839 15.5613 83.2749C15.8415 83.6659 16.2962 83.861 16.9277 83.861C17.2722 83.861 17.7384 83.7837 18.327 83.6292C18.9149 83.4746 19.3742 83.3973 19.7049 83.3973C20.178 83.3973 20.6051 83.6384 20.9856 84.1204C21.3652 84.6024 21.5558 85.1977 21.5558 85.907C21.5558 87.1075 21.0391 88.0257 20.0065 88.6622C18.9731 89.2981 17.4881 89.6171 15.5514 89.6171C13.7142 89.6171 12.3226 89.2262 11.3757 88.4442C10.4287 87.6622 9.80794 86.5803 9.51399 85.1985C9.22005 83.8166 9.07231 81.9704 9.07231 79.6612V65.3662H8.29764C7.45101 65.3662 5.34516 65.1114 4.90041 64.6026C4.45567 64.0937 4.23291 63.448 4.23291 62.666C4.23291 61.8848 4.46562 61.2436 4.93256 60.7432C5.39874 60.2428 7.53675 59.9926 8.427 59.9926Z" fill="#117EC2"/>
<path d="M107.738 23.6045C105.12 20.6763 101.402 18.9448 97.4855 18.8147C96.6037 15.9462 94.8844 13.4779 92.4961 11.6592C89.9845 9.74634 86.9685 8.7356 83.7749 8.7356C78.2489 8.7356 73.3107 11.8053 70.8872 16.7466C70.5917 17.3487 70.5741 18.0488 70.8382 18.6671C71.1031 19.2876 71.6236 19.7612 72.2666 19.9655C73.3658 20.3159 74.5363 19.8125 75.0507 18.7688C76.6949 15.4336 80.0378 13.3616 83.7749 13.3616C87.7776 13.3616 91.3364 15.7794 92.8 19.4337C90.7293 20.0657 88.8126 21.1675 87.2265 22.6419C86.7358 23.098 86.4679 23.7445 86.4931 24.4155C86.5176 25.0881 86.833 25.7155 87.3627 26.1394C88.2622 26.8601 89.5405 26.8058 90.4009 26.0101C92.2006 24.3467 94.5483 23.4308 97.0117 23.4308C99.7858 23.4308 102.437 24.6175 104.287 26.6864C106.162 28.7837 107.019 31.4953 106.7 34.3217C106.147 39.2278 101.97 42.9272 96.9833 42.9272C96.9328 42.9272 96.8815 42.9264 96.8318 42.9257C90.603 42.8339 86.7611 36.7541 84.9139 33.8313C83.3141 31.2994 81.5006 28.5733 80.5622 27.1738C79.9314 26.2335 79.283 25.4416 78.5803 24.7537C76.1346 22.3588 73.2342 21.1951 69.7129 21.1951C66.1894 21.1951 62.9024 22.593 60.4582 25.1301C58.0148 27.6673 56.7433 31.0056 56.8773 34.5321C57.1284 41.1437 62.5028 46.5585 69.1136 46.86C72.0423 46.9924 74.9565 46.1125 77.3173 44.381C77.8516 43.9892 78.1846 43.384 78.2313 42.7214C78.2779 42.0542 78.0307 41.403 77.5515 40.9363L77.4826 40.8698C76.6911 40.0977 75.4533 40.0174 74.5401 40.6792C73.0367 41.7688 71.185 42.3235 69.3241 42.2378C65.0986 42.045 61.6623 38.5828 61.5023 34.3561C61.4166 32.0982 62.2295 29.9612 63.7927 28.3391C65.3566 26.7155 67.4586 25.8218 69.7129 25.8218C72.0255 25.8218 73.7616 26.512 75.3415 28.0591C75.8154 28.5228 76.2655 29.076 76.7171 29.75C77.6434 31.1311 79.4308 33.8183 81 36.3019C83.1028 39.6295 88.0264 47.4231 96.7614 47.5517C96.8364 47.5532 96.9099 47.5532 96.9849 47.5532C104.328 47.5532 110.482 42.0871 111.299 34.8389C111.76 30.7478 110.462 26.652 107.738 23.6045Z" fill="#117EC2"/>
<path d="M13.2648 111.263C12.6188 111.263 12.0224 111.155 11.4751 110.938C10.9278 110.722 10.4532 110.417 10.0529 110.025C9.65251 109.633 9.33942 109.172 9.11513 108.641C8.89008 108.11 8.77832 107.53 8.77832 106.901C8.77832 106.272 8.89085 105.692 9.11513 105.16C9.34019 104.629 9.6548 104.168 10.059 103.775C10.4639 103.383 10.9393 103.079 11.4874 102.862C12.0347 102.646 12.6318 102.538 13.2771 102.538C13.8979 102.538 14.4827 102.642 15.03 102.85C15.5774 103.058 16.0397 103.371 16.4156 103.787L15.8392 104.363C15.4878 104.004 15.0997 103.744 14.6741 103.585C14.2492 103.426 13.7915 103.347 13.3008 103.347C12.7856 103.347 12.308 103.435 11.8663 103.61C11.4246 103.786 11.0403 104.034 10.7135 104.357C10.3866 104.68 10.1309 105.056 9.94722 105.485C9.7635 105.914 9.67164 106.386 9.67164 106.901C9.67164 107.416 9.7635 107.887 9.94722 108.316C10.1309 108.745 10.3866 109.121 10.7135 109.443C11.0403 109.766 11.4246 110.015 11.8663 110.191C12.308 110.367 12.7856 110.455 13.3008 110.455C13.7915 110.455 14.2492 110.373 14.6741 110.209C15.0989 110.046 15.487 109.784 15.8392 109.425L16.4156 110.001C16.0397 110.418 15.5774 110.732 15.03 110.945C14.4827 111.158 13.8941 111.263 13.2648 111.263Z" fill="#117EC2"/>
<path d="M18.4756 111.19V102.096H19.3459V111.19H18.4756Z" fill="#117EC2"/>
<path d="M24.7032 111.251C24.0824 111.251 23.5243 111.11 23.0298 110.829C22.5353 110.547 22.1449 110.159 21.8586 109.664C21.5723 109.17 21.4292 108.605 21.4292 107.967C21.4292 107.322 21.5723 106.754 21.8586 106.264C22.1449 105.774 22.533 105.39 23.0237 105.113C23.5144 104.835 24.074 104.696 24.7032 104.696C25.3408 104.696 25.9065 104.835 26.401 105.113C26.8955 105.39 27.2836 105.774 27.5661 106.264C27.8478 106.755 27.9894 107.322 27.9894 107.967C27.9894 108.605 27.8486 109.17 27.5661 109.664C27.2844 110.159 26.8932 110.547 26.3949 110.829C25.8966 111.11 25.3324 111.251 24.7032 111.251ZM24.7032 110.479C25.1694 110.479 25.582 110.375 25.9417 110.167C26.3015 109.959 26.5855 109.664 26.7937 109.285C27.0019 108.905 27.106 108.466 27.106 107.967C27.106 107.461 27.0019 107.019 26.7937 106.644C26.5855 106.268 26.3015 105.976 25.9417 105.768C25.582 105.559 25.1732 105.455 24.7154 105.455C24.2577 105.455 23.8489 105.559 23.4891 105.768C23.1293 105.976 22.8431 106.268 22.631 106.644C22.4182 107.019 22.3118 107.461 22.3118 107.967C22.3118 108.466 22.4182 108.905 22.631 109.285C22.8438 109.664 23.1293 109.959 23.4891 110.167C23.8489 110.375 24.2538 110.479 24.7032 110.479Z" fill="#117EC2"/>
<path d="M32.7338 111.251C32.1865 111.251 31.708 111.15 31.2993 110.945C30.8905 110.741 30.5736 110.435 30.3493 110.026C30.1242 109.618 30.0117 109.107 30.0117 108.495V104.757H30.8821V108.397C30.8821 109.083 31.052 109.599 31.3911 109.947C31.7302 110.294 32.2064 110.468 32.8195 110.468C33.2689 110.468 33.6593 110.376 33.9907 110.192C34.3222 110.009 34.5748 109.741 34.7508 109.39C34.9269 109.039 35.0142 108.618 35.0142 108.127V104.758H35.8845V111.192H35.0509V109.427L35.1856 109.746C34.9812 110.22 34.6643 110.589 34.2357 110.855C33.8062 111.119 33.3056 111.251 32.7338 111.251Z" fill="#117EC2"/>
<path d="M41.1822 111.251C40.569 111.251 40.0194 111.113 39.5333 110.835C39.0473 110.557 38.6645 110.171 38.3874 109.676C38.1095 109.182 37.9702 108.612 37.9702 107.967C37.9702 107.314 38.1088 106.741 38.3874 106.252C38.6653 105.761 39.0473 105.379 39.5333 105.105C40.0194 104.832 40.5698 104.695 41.1822 104.695C41.7464 104.695 42.2508 104.822 42.6963 105.075C43.1418 105.328 43.497 105.698 43.7634 106.184C44.029 106.669 44.1615 107.264 44.1615 107.967C44.1615 108.662 44.0306 109.254 43.7688 109.744C43.507 110.233 43.1533 110.608 42.7086 110.865C42.2631 111.122 41.754 111.251 41.1822 111.251ZM41.2434 110.479C41.7012 110.479 42.1115 110.375 42.4759 110.167C42.8395 109.959 43.1258 109.664 43.334 109.285C43.5422 108.905 43.6463 108.466 43.6463 107.967C43.6463 107.461 43.5422 107.019 43.334 106.643C43.1258 106.268 42.8395 105.975 42.4759 105.767C42.1123 105.559 41.7012 105.455 41.2434 105.455C40.7941 105.455 40.3891 105.559 40.0294 105.767C39.6696 105.975 39.3833 106.268 39.1713 106.643C38.9585 107.019 38.8521 107.461 38.8521 107.967C38.8521 108.466 38.9585 108.904 39.1713 109.285C39.3841 109.664 39.6696 109.959 40.0294 110.167C40.3891 110.375 40.7933 110.479 41.2434 110.479ZM43.6708 111.19V109.253L43.7565 107.954L43.634 106.655V102.096H44.5044V111.19H43.6708Z" fill="#117EC2"/>
<path d="M54.6681 111.263C54.0221 111.263 53.4258 111.155 52.8784 110.938C52.3311 110.722 51.8565 110.417 51.4562 110.025C51.0558 109.633 50.7427 109.172 50.5185 108.641C50.2934 108.11 50.1816 107.53 50.1816 106.901C50.1816 106.272 50.2942 105.692 50.5185 105.16C50.7435 104.629 51.0581 104.168 51.4623 103.775C51.8672 103.383 52.3426 103.079 52.8907 102.862C53.438 102.646 54.0351 102.538 54.6804 102.538C55.3012 102.538 55.886 102.642 56.4334 102.85C56.9807 103.058 57.443 103.371 57.8189 103.787L57.2425 104.363C56.8911 104.004 56.503 103.744 56.0774 103.585C55.6526 103.426 55.1948 103.347 54.7041 103.347C54.189 103.347 53.7113 103.435 53.2696 103.61C52.8279 103.786 52.4437 104.034 52.1168 104.357C51.7899 104.68 51.5343 105.056 51.3505 105.485C51.1668 105.914 51.075 106.386 51.075 106.901C51.075 107.416 51.1668 107.887 51.3505 108.316C51.5343 108.745 51.7899 109.121 52.1168 109.443C52.4437 109.766 52.8279 110.015 53.2696 110.191C53.7113 110.367 54.189 110.455 54.7041 110.455C55.1948 110.455 55.6526 110.373 56.0774 110.209C56.5023 110.046 56.8904 109.784 57.2425 109.425L57.8189 110.001C57.443 110.418 56.9807 110.732 56.4334 110.945C55.886 111.158 55.2974 111.263 54.6681 111.263Z" fill="#117EC2"/>
<path d="M62.2203 111.251C61.5995 111.251 61.0414 111.11 60.5469 110.829C60.0524 110.547 59.662 110.159 59.3757 109.664C59.0894 109.17 58.9463 108.605 58.9463 107.967C58.9463 107.322 59.0894 106.754 59.3757 106.264C59.662 105.774 60.0501 105.39 60.5408 105.113C61.0315 104.835 61.591 104.696 62.2203 104.696C62.8579 104.696 63.4236 104.835 63.9181 105.113C64.4126 105.39 64.8007 105.774 65.0832 106.264C65.3649 106.755 65.5065 107.322 65.5065 107.967C65.5065 108.605 65.3656 109.17 65.0832 109.664C64.8015 110.159 64.4103 110.547 63.912 110.829C63.4137 111.11 62.8495 111.251 62.2203 111.251ZM62.2203 110.479C62.6865 110.479 63.099 110.375 63.4588 110.167C63.8186 109.959 64.1026 109.664 64.3108 109.285C64.519 108.905 64.6231 108.466 64.6231 107.967C64.6231 107.461 64.519 107.019 64.3108 106.644C64.1026 106.268 63.8186 105.976 63.4588 105.768C63.099 105.559 62.6903 105.455 62.2325 105.455C61.7748 105.455 61.366 105.559 61.0062 105.768C60.6464 105.976 60.3601 106.268 60.1481 106.644C59.9353 107.019 59.8289 107.461 59.8289 107.967C59.8289 108.466 59.9353 108.905 60.1481 109.285C60.3609 109.664 60.6464 109.959 61.0062 110.167C61.366 110.375 61.7709 110.479 62.2203 110.479Z" fill="#117EC2"/>
<path d="M75.6343 104.695C76.1571 104.695 76.6133 104.795 77.0014 104.995C77.3895 105.196 77.6919 105.5 77.9085 105.908C78.1252 106.317 78.2331 106.832 78.2331 107.452V111.19H77.3627V107.538C77.3627 106.86 77.2012 106.347 76.8782 106C76.5551 105.653 76.0997 105.479 75.511 105.479C75.0693 105.479 74.6874 105.571 74.3651 105.754C74.0421 105.938 73.7925 106.203 73.6172 106.551C73.4412 106.898 73.3539 107.317 73.3539 107.807V111.19H72.4835V107.538C72.4835 106.86 72.3197 106.347 71.9928 106C71.666 105.653 71.2082 105.479 70.6196 105.479C70.1863 105.479 69.8059 105.571 69.479 105.754C69.1521 105.938 68.9003 106.203 68.725 106.551C68.5489 106.898 68.4617 107.317 68.4617 107.807V111.19H67.5913V104.756H68.4249V106.496L68.2902 106.19C68.4862 105.724 68.8031 105.358 69.2402 105.092C69.6773 104.827 70.1947 104.694 70.791 104.694C71.4203 104.694 71.9561 104.851 72.397 105.166C72.8387 105.48 73.1242 105.952 73.2551 106.581L72.9122 106.447C73.1005 105.923 73.4335 105.501 73.9112 105.178C74.3896 104.856 74.9637 104.695 75.6343 104.695Z" fill="#117EC2"/>
<path d="M88.9492 104.695C89.472 104.695 89.9283 104.795 90.3164 104.995C90.7045 105.196 91.0068 105.5 91.2235 105.908C91.4401 106.317 91.548 106.832 91.548 107.452V111.19H90.6777V107.538C90.6777 106.86 90.5161 106.347 90.1931 106C89.8701 105.653 89.4146 105.479 88.826 105.479C88.3843 105.479 88.0023 105.571 87.68 105.754C87.357 105.938 87.1074 106.203 86.9321 106.551C86.7561 106.898 86.6688 107.317 86.6688 107.807V111.19H85.7985V107.538C85.7985 106.86 85.6347 106.347 85.3078 106C84.9809 105.653 84.5232 105.479 83.9345 105.479C83.5012 105.479 83.1208 105.571 82.7939 105.754C82.4671 105.938 82.2152 106.203 82.0399 106.551C81.8639 106.898 81.7766 107.317 81.7766 107.807V111.19H80.9062V104.756H81.7399V106.496L81.6051 106.19C81.8011 105.724 82.118 105.358 82.5551 105.092C82.9922 104.827 83.5097 104.694 84.106 104.694C84.7352 104.694 85.271 104.851 85.712 105.166C86.1536 105.48 86.4392 105.952 86.5701 106.581L86.2271 106.447C86.4154 105.923 86.7484 105.501 87.2261 105.178C87.7045 104.856 88.2786 104.695 88.9492 104.695Z" fill="#117EC2"/>
<path d="M96.8808 111.251C96.3334 111.251 95.855 111.15 95.4462 110.945C95.0375 110.741 94.7206 110.435 94.4963 110.026C94.2712 109.618 94.1587 109.107 94.1587 108.495V104.757H95.029V108.397C95.029 109.083 95.199 109.599 95.5381 109.947C95.8772 110.294 96.3533 110.468 96.9665 110.468C97.4158 110.468 97.8062 110.376 98.1377 110.192C98.4691 110.009 98.7217 109.741 98.8978 109.39C99.0739 109.039 99.1611 108.618 99.1611 108.127V104.758H100.031V111.192H99.1979V109.427L99.3326 109.746C99.1282 110.22 98.8113 110.589 98.3826 110.855C97.954 111.119 97.4533 111.251 96.8808 111.251Z" fill="#117EC2"/>
<path d="M106.052 104.695C106.575 104.695 107.035 104.795 107.431 104.995C107.828 105.196 108.138 105.5 108.363 105.908C108.587 106.317 108.7 106.832 108.7 107.452V111.19H107.829V107.538C107.829 106.86 107.659 106.347 107.32 106C106.981 105.653 106.505 105.479 105.892 105.479C105.434 105.479 105.035 105.571 104.696 105.754C104.357 105.938 104.095 106.203 103.912 106.551C103.728 106.898 103.636 107.317 103.636 107.807V111.19H102.766V104.756H103.599V106.52L103.465 106.19C103.669 105.724 103.996 105.358 104.445 105.092C104.895 104.828 105.43 104.695 106.052 104.695Z" fill="#117EC2"/>
<path d="M111.803 103.334C111.623 103.334 111.472 103.273 111.349 103.151C111.226 103.028 111.165 102.881 111.165 102.709C111.165 102.538 111.226 102.392 111.349 102.274C111.471 102.156 111.623 102.096 111.803 102.096C111.983 102.096 112.134 102.154 112.257 102.268C112.379 102.382 112.44 102.525 112.44 102.697C112.44 102.877 112.381 103.028 112.263 103.151C112.143 103.273 111.99 103.334 111.803 103.334ZM111.361 111.19V104.756H112.231V111.19H111.361Z" fill="#117EC2"/>
<path d="M117.638 111.251C117 111.251 116.431 111.11 115.928 110.829C115.425 110.547 115.031 110.159 114.744 109.664C114.458 109.17 114.315 108.605 114.315 107.967C114.315 107.322 114.458 106.754 114.744 106.264C115.031 105.774 115.425 105.39 115.928 105.113C116.431 104.835 117.001 104.696 117.638 104.696C118.185 104.696 118.68 104.802 119.121 105.015C119.563 105.227 119.91 105.546 120.163 105.97L119.513 106.412C119.293 106.085 119.019 105.844 118.692 105.689C118.365 105.533 118.009 105.456 117.625 105.456C117.167 105.456 116.755 105.56 116.386 105.768C116.019 105.976 115.728 106.269 115.516 106.644C115.303 107.02 115.197 107.462 115.197 107.968C115.197 108.475 115.303 108.916 115.516 109.292C115.729 109.668 116.019 109.96 116.386 110.168C116.755 110.376 117.167 110.48 117.625 110.48C118.009 110.48 118.364 110.403 118.692 110.247C119.019 110.092 119.293 109.855 119.513 109.537L120.163 109.977C119.91 110.394 119.562 110.711 119.121 110.928C118.681 111.144 118.186 111.251 117.638 111.251Z" fill="#117EC2"/>
<path d="M123.989 111.251C123.507 111.251 123.088 111.171 122.732 111.012C122.376 110.853 122.105 110.633 121.917 110.35C121.729 110.069 121.635 109.744 121.635 109.376C121.635 109.041 121.715 108.738 121.874 108.464C122.033 108.19 122.295 107.969 122.659 107.802C123.022 107.634 123.511 107.551 124.124 107.551H126.343V108.2H124.148C123.528 108.2 123.096 108.311 122.855 108.532C122.614 108.752 122.493 109.026 122.493 109.353C122.493 109.721 122.636 110.015 122.922 110.235C123.208 110.456 123.609 110.566 124.124 110.566C124.615 110.566 125.037 110.454 125.393 110.23C125.748 110.005 126.008 109.68 126.172 109.256L126.367 109.856C126.204 110.281 125.92 110.62 125.516 110.873C125.111 111.125 124.602 111.251 123.989 111.251ZM126.208 111.19V109.768L126.172 109.536V107.158C126.172 106.611 126.018 106.19 125.711 105.896C125.405 105.602 124.949 105.454 124.344 105.454C123.928 105.454 123.531 105.524 123.155 105.662C122.779 105.801 122.46 105.985 122.199 106.214L121.806 105.565C122.133 105.287 122.525 105.073 122.983 104.921C123.441 104.77 123.923 104.695 124.43 104.695C125.264 104.695 125.907 104.901 126.361 105.314C126.815 105.726 127.042 106.353 127.042 107.195V111.19H126.208Z" fill="#117EC2"/>
<path d="M128.71 105.479V104.756H132.695V105.479H128.71ZM131.75 111.251C131.146 111.251 130.68 111.088 130.353 110.761C130.026 110.434 129.862 109.973 129.862 109.376V103.334H130.732V109.327C130.732 109.703 130.828 109.993 131.02 110.197C131.212 110.401 131.488 110.504 131.848 110.504C132.232 110.504 132.55 110.394 132.804 110.172L133.11 110.798C132.939 110.953 132.732 111.067 132.491 111.141C132.251 111.215 132.004 111.251 131.75 111.251Z" fill="#117EC2"/>
<path d="M135.44 103.334C135.26 103.334 135.11 103.273 134.986 103.151C134.864 103.028 134.803 102.881 134.803 102.709C134.803 102.538 134.864 102.392 134.986 102.274C135.109 102.156 135.26 102.096 135.44 102.096C135.62 102.096 135.772 102.154 135.894 102.268C136.017 102.382 136.078 102.525 136.078 102.697C136.078 102.877 136.018 103.028 135.9 103.151C135.781 103.273 135.628 103.334 135.44 103.334ZM134.999 111.19V104.756H135.869V111.19H134.999Z" fill="#117EC2"/>
<path d="M141.227 111.251C140.606 111.251 140.048 111.11 139.554 110.829C139.059 110.547 138.669 110.159 138.383 109.664C138.096 109.17 137.953 108.605 137.953 107.967C137.953 107.322 138.096 106.754 138.383 106.264C138.669 105.774 139.057 105.39 139.548 105.113C140.038 104.835 140.598 104.696 141.227 104.696C141.865 104.696 142.43 104.835 142.925 105.113C143.419 105.39 143.808 105.774 144.09 106.264C144.372 106.755 144.513 107.322 144.513 107.967C144.513 108.605 144.372 109.17 144.09 109.664C143.808 110.159 143.417 110.547 142.919 110.829C142.42 111.11 141.857 111.251 141.227 111.251ZM141.227 110.479C141.693 110.479 142.106 110.375 142.466 110.167C142.825 109.959 143.109 109.664 143.318 109.285C143.526 108.905 143.63 108.466 143.63 107.967C143.63 107.461 143.526 107.019 143.318 106.644C143.109 106.268 142.825 105.976 142.466 105.768C142.106 105.559 141.697 105.455 141.239 105.455C140.782 105.455 140.373 105.559 140.013 105.768C139.653 105.976 139.367 106.268 139.155 106.644C138.942 107.019 138.836 107.461 138.836 107.967C138.836 108.466 138.942 108.905 139.155 109.285C139.368 109.664 139.653 109.959 140.013 110.167C140.374 110.375 140.778 110.479 141.227 110.479Z" fill="#117EC2"/>
<path d="M149.883 104.695C150.406 104.695 150.866 104.795 151.262 104.995C151.659 105.196 151.969 105.5 152.194 105.908C152.418 106.317 152.531 106.832 152.531 107.452V111.19H151.66V107.538C151.66 106.86 151.49 106.347 151.151 106C150.812 105.653 150.336 105.479 149.723 105.479C149.265 105.479 148.866 105.571 148.527 105.754C148.188 105.938 147.926 106.203 147.743 106.551C147.559 106.898 147.467 107.317 147.467 107.807V111.19H146.597V104.756H147.43V106.52L147.296 106.19C147.5 105.724 147.827 105.358 148.276 105.092C148.726 104.828 149.262 104.695 149.883 104.695Z" fill="#117EC2"/>
<path d="M156.921 111.251C156.39 111.251 155.887 111.176 155.413 111.025C154.939 110.873 154.567 110.683 154.297 110.455L154.69 109.768C154.951 109.964 155.286 110.134 155.695 110.277C156.104 110.42 156.533 110.491 156.983 110.491C157.596 110.491 158.037 110.396 158.307 110.204C158.577 110.012 158.712 109.756 158.712 109.438C158.712 109.2 158.636 109.015 158.486 108.88C158.334 108.745 158.137 108.643 157.891 108.574C157.646 108.504 157.372 108.445 157.069 108.396C156.767 108.347 156.467 108.29 156.168 108.225C155.87 108.16 155.598 108.063 155.353 107.936C155.108 107.81 154.91 107.637 154.758 107.415C154.607 107.195 154.532 106.9 154.532 106.533C154.532 106.182 154.63 105.868 154.826 105.59C155.022 105.312 155.31 105.093 155.69 104.934C156.071 104.774 156.534 104.695 157.082 104.695C157.499 104.695 157.915 104.75 158.333 104.86C158.75 104.97 159.093 105.115 159.362 105.295L158.982 105.994C158.695 105.798 158.389 105.656 158.062 105.571C157.735 105.485 157.409 105.442 157.082 105.442C156.501 105.442 156.074 105.542 155.8 105.743C155.526 105.943 155.389 106.198 155.389 106.509C155.389 106.754 155.465 106.946 155.616 107.085C155.767 107.224 155.967 107.332 156.217 107.41C156.466 107.487 156.74 107.551 157.038 107.6C157.337 107.649 157.634 107.708 157.933 107.777C158.231 107.847 158.505 107.941 158.754 108.06C159.004 108.178 159.204 108.346 159.355 108.562C159.506 108.778 159.582 109.062 159.582 109.413C159.582 109.789 159.478 110.113 159.269 110.387C159.061 110.661 158.759 110.873 158.362 111.025C157.965 111.176 157.485 111.251 156.921 111.251Z" fill="#117EC2"/>
</g>
<defs>
<clipPath id="clip0_2763_17055">
<rect width="168.407" height="120" fill="white"/>
</clipPath>
</defs>
</svg>
