<?xml version="1.0" encoding="utf-8"?>
<!-- Generator: Adobe Illustrator 28.1.0, SVG Export Plug-In . SVG Version: 6.00 Build 0)  -->
<svg version="1.1" id="Layer_1" xmlns="http://www.w3.org/2000/svg" xmlns:xlink="http://www.w3.org/1999/xlink" x="0px" y="0px"
	 viewBox="0 0 2200 1343.8" style="enable-background:new 0 0 2200 1343.8;" xml:space="preserve">
<style type="text/css">
	.st0{fill:#FFFFFF;}
</style>
<g>
	<path class="st0" d="M1403.5,243.6c-33.6-37.6-81.4-59.9-131.7-61.6c-0.1,0-0.2-0.1-0.2-0.2c-11.4-36.8-33.4-68.5-64.1-91.9
		c-32.3-24.6-71.1-37.6-112.1-37.6c-71.1,0-134.5,39.5-165.7,103c-3.8,7.7-4,16.8-0.6,24.7c3.4,8,10.1,14.1,18.4,16.7
		c14.1,4.5,29.2-2,35.8-15.4c21.1-42.9,64.1-69.6,112.2-69.6c51.4,0,97.1,31,115.9,77.9c0.1,0.1,0,0.3-0.1,0.3
		c-26.5,8.1-51.1,22.3-71.4,41.2c-6.3,5.9-9.8,14.2-9.4,22.8c0.3,8.7,4.4,16.7,11.2,22.2c11.6,9.3,28,8.6,39.1-1.7
		c23.1-21.4,53.3-33.2,85-33.2c35.7,0,69.8,15.3,93.5,41.9c24.1,27,35.1,61.9,31,98.2c-7.1,63.1-60.8,110.7-124.9,110.7
		c-0.6,0-1.3,0-1.9,0c-80.1-1.2-129.5-79.4-153.2-117c-20.6-32.6-43.9-67.6-56-85.6c-8.1-12.1-16.4-22.3-25.5-31.1
		c-31.4-30.8-68.7-45.8-114-45.8c-45.3,0-87.6,18-119,50.6c-31.4,32.6-47.8,75.6-46,120.9c3.2,85,72.3,154.7,157.3,158.6
		c37.7,1.7,75.1-9.6,105.5-31.9c6.9-5,11.2-12.8,11.8-21.3c0.6-8.6-2.6-17-8.7-23l-0.9-0.9c-10.2-9.9-26.1-11-37.8-2.5
		c-19.3,14-43.1,21.2-67.1,20c-54.3-2.5-98.5-47-100.6-101.4c-1.1-29,9.4-56.5,29.4-77.4c20.1-20.9,47.1-32.4,76.1-32.4
		c29.7,0,52.1,8.9,72.4,28.8c6.1,6,11.9,13.1,17.7,21.8c11.9,17.8,34.9,52.3,55.1,84.3c27,42.8,90.3,143.1,202.7,144.7
		c1,0,1.9,0,2.9,0c94.4,0,173.5-70.3,184-163.5C1455.3,335.5,1438.6,282.8,1403.5,243.6z"/>
	<g>
		
			<ellipse transform="matrix(0.7071 -0.7071 0.7071 0.7071 109.1994 1586.5555)" class="st0" cx="1969.7" cy="661.5" rx="41" ry="41"/>
		
			<ellipse transform="matrix(0.9732 -0.2298 0.2298 0.9732 -102.4571 442.9645)" class="st0" cx="1851" cy="661.5" rx="41" ry="41"/>
		<path class="st0" d="M96.4,907.2c6.7,20.4,17.4,38.8,31.9,54.8c13.7,15.1,30.8,28,50.8,38.5c37.8,19.7,84.5,30.2,135.1,30.2
			c53.7,0,106.8-11.9,149.5-33.6c14.8-7.8,29.9-18.7,38.4-27.8l0,0l0,0l0.1-0.1c6.9-7.4,13.5-16.9,18.9-27.3l3.6-6.9l5.8,5.2
			c19.5,17.8,42.2,32.3,67.2,43c27.5,11.8,57.4,17.8,89,17.8s61.6-6,89-17.8c25-10.7,47.6-25.2,67.1-42.9l6-5.5l3.5,7.3
			c7.5,16,17.5,30.2,29.6,42.3c13.4,13.4,29.4,24.2,47.6,32c18.1,7.7,37.7,11.7,58.4,11.7c20.7,0,40.3-3.9,58.4-11.7
			c16.2-6.9,30.7-16.3,43.2-27.8c1.2-1.1,2.7-1.7,4.3-1.7c1.6,0,3.1,0.6,4.2,1.6c12.2,11,26.4,20,42.1,26.8
			c18.1,7.7,37.7,11.7,58.4,11.7c20.7,0,40.3-3.9,58.4-11.7c18.1-7.8,34.1-18.5,47.6-32c11.9-11.9,21.8-25.7,29.4-41l3.5-7.1
			l5.9,5.3c19.4,17.6,41.8,31.9,66.7,42.6c27.5,11.8,57.4,17.8,89,17.8s61.6-6,89-17.8c27.6-11.8,52.1-28.1,72.9-48.4
			c5-4.9,9.9-10.1,14.5-15.4l5.3-6.2l4.3,6.9c2.6,4.1,5.3,8.2,8.1,12.1c11.2,15.8,24.6,30.2,39.7,42.9
			c15.1,12.7,31.8,23.5,49.5,32.1c31.3,14.6,64.4,22,98.4,22c6.1,0,12.4-0.2,18.7-0.7c40.8-3.1,78.7-16.3,112.7-39.3
			c16.2-11,30.9-23.9,43.5-38.4c11.8-15.6,26.7-36.3,37.4-57.9c12.3-25,16-45.7,11.1-61.5c-4.1-12.8-17.6-21.8-32.9-21.8
			c-2.2,0-4.3,0.2-6.4,0.6l0,0l0,0c-20,3.3-31.2,20.6-39.5,37.2l0,0l0,0c-0.8,1.5-1.5,3-2.3,4.5c-5.3,10.3-10.7,21-17.6,30.8
			c-10,14.4-22.4,26.6-35.4,38.9l-0.2,0.2l-0.2,0.1l-0.2,0.1l-0.2,0.2c-14.5,10.2-30.5,17.7-47.3,22.3c-14,3.9-28,5.9-41.6,5.9
			c-20.1,0-40-4.3-59.2-12.9l-0.1-0.1l-0.1-0.1l-4.4-2.2c-0.3-0.1-35.1-20.2-49.3-37c-0.9-1-1.8-2.1-2.6-3.1
			c-20.4-25.2-32.2-57.5-33-91.1l-1.1-43.7l0-0.1V760V651.7l-0.6-42.3l0,0v0v-67.6c0-11.3-3.8-20.5-11.7-28.3
			c-7.9-7.8-17.2-11.6-28.6-11.6c-11.4,0-20.7,3.8-28.6,11.6c-7.8,7.8-11.7,17-11.7,28.3v248.6v0.4l-0.1,0.4
			c-2,14-6.1,27.6-12.2,40.3c-8.4,17.6-19.5,33.1-33.1,46.1c-13.5,13-29.4,23.5-47.3,31.2c-17.9,7.7-37.4,11.6-57.9,11.6
			c-20.5,0-39.9-3.9-57.9-11.6c-17.9-7.6-33.8-18.1-47.3-31.2c-13.5-13-24.7-28.5-33.1-46.1c-5.7-12-9.7-24.7-11.8-37.8l-0.1-0.5
			v-0.5v-17.5c0-7.8-1.8-15-5.2-21.3l-0.1-0.1l-0.1-0.2c-1.9-4.1-4.7-8-8.2-11.5c-8-8-17.4-11.9-28.7-11.9c-0.2,0-0.4,0-0.6,0
			l-0.4,0l-0.1,0l-0.1,0l-0.5,0c-0.2,0-0.4,0-0.6,0c-12.6,0-23,4.5-31.9,13.7c-8.2,8.5-12.7,19.9-12.7,32.2v102.7v0.1l0,0.1
			c-0.6,16.1-6.8,30.1-18.2,41.5c-11.5,11.4-26,17.2-42.9,17.2c-16.4,0-30.6-5.7-42.4-17.1c-11.5-11.1-17.6-24.9-17.8-41.2l0-0.1
			v-0.1v-0.1l0,0V776.3c0-12.5-4.3-22.9-13.1-31.8c-8.8-8.9-19.1-13.2-31.5-13.2c-12.6,0-23,4.5-31.9,13.7
			c-8.2,8.5-12.7,19.9-12.7,32.2v100.3v2.2v0v0.3v0.1v3.4h-0.2c-1.3,14.8-7.3,27.6-18,38.2c-1.3,1.3-2.7,2.5-4.2,3.8l0,0l0,0
			c-10.8,8.6-23.5,13-37.8,13c-16.9,0-31.3-5.8-42.9-17.2c-10.1-10-16.1-22.1-17.8-36h-0.5l0-6V776.9c0-12.5-4.9-24.5-13.4-33
			c-7.3-7.3-15.6-11.5-25.4-12.7l-0.3,0l-0.3-0.1c-2.9-0.7-6-1-9.1-1c-11.3,0-20.6,3.9-28.7,11.9c-7.9,7.9-11.8,17.1-11.9,28.2
			l0,0.3l0,0.3c-0.2,1.7-0.3,3.4-0.3,5.1v4.4v0.2l0,0.2c-1.2,17.8-5.6,34.8-13.2,50.7c-8.4,17.6-19.5,33.1-33.1,46.1
			c-13.5,13-29.4,23.5-47.3,31.2c-17.9,7.7-37.4,11.6-57.9,11.6s-39.9-3.9-57.9-11.6c-17.9-7.6-33.8-18.1-47.3-31.2
			c-13.5-13-24.7-28.5-33.1-46.1c-5-10.5-8.7-21.7-11-33.1l-0.1-0.5l0-0.5c-0.3-10.2-1.1-18.9-2.4-26.5l-0.1-0.5l0-0.5
			c-0.2-8.9-2.8-16.6-8.1-23.4l-0.2-0.3l-0.2-0.3c-6.8-11.2-17.1-16.7-31.5-16.7c-1.3,0-2.7,0-4,0.1c-10,1.2-17.6,5-23.4,11.6
			l-0.1,0.1l-0.1,0.1c-0.1,0-0.1,0.1-0.2,0.1c-7.6,7.6-11.7,16.6-12.6,27.4v1.2v0.7v4.3l0,0.1l0,0.3l0,0.5l-0.1,0.5
			c-1.9,15.8-1.3,33.3-0.8,48.8c0.3,8.1,0.5,15.8,0.4,22.6c1,23.5-6.5,43.7-22.3,60.1c-23.5,24.6-64.5,38.7-112.3,38.7
			c-52.5,0-116-19.1-139.6-61.8c-0.5-0.9-1.1-1.7-1.6-2.6c-7.3-12.1-14.8-24.6-26.9-30.4l-0.1,0l-0.1,0c-5.2-2.7-11.3-4.1-17.4-4.1
			c-10.8,0-21,4.1-28.2,11.3l-0.1,0.1l-0.1,0.1C91.8,872.1,92,893.1,96.4,907.2z"/>
		<g>
			<path class="st0" d="M615,1008.1h0.8C615.6,1008.1,615.3,1008.1,615,1008.1L615,1008.1z"/>
			<path class="st0" d="M615,1008.1L615,1008.1l0.7,0C615.5,1008.1,615.3,1008.1,615,1008.1L615,1008.1z M615.8,1008.1L615.8,1008.1
				C615.8,1008.1,615.8,1008.1,615.8,1008.1C615.8,1008.1,615.8,1008.1,615.8,1008.1L615.8,1008.1z"/>
		</g>
		<g>
			<path class="st0" d="M813.8,1008.1L813.8,1008.1c-0.3,0-0.5,0-0.8,0H813.8z"/>
			<path class="st0" d="M813.8,1008.1c-0.3,0-0.5,0-0.8,0L813.8,1008.1L813.8,1008.1L813.8,1008.1z"/>
		</g>
		<path class="st0" d="M311.3,1168.4c7.7,7.7,18,12,29,12c10.9,0,21.2-4.2,28.9-11.9c7.8-7.7,12.1-18,12.1-29c0-11-4.2-21.3-12-29
			c-7.7-7.7-18-12-29-12l0-3c0,0,0,0,0,0v3c-11,0-21.3,4.3-29.1,12.1C295.4,1126.5,295.4,1152.5,311.3,1168.4z"/>
	</g>
	<g>
		<path class="st0" d="M601.4,1261.4h-20.5c-14.6,0-21.7-7.5-21.5-22.3h-29.9c-15.4,0-23.2-9.8-23.2-29.1c0-12.8,3.3-22.6,10-29.3
			c5.3-5.5,11.8-8.3,19.3-8.3c9.5,0,18.3,5.1,22.3,11.6h0.4v-10h14v64.2c0,6.7,2.8,10.2,8.5,10.2h20.5V1261.4z M558.5,1226.5
			l-0.2-30.1c-4.9-8.3-11.2-12.6-19.1-12.6c-5.1,0-9.3,2.2-12.6,6.7c-3.9,4.7-5.7,11.6-5.7,20.3c0,4.7,0.6,7.9,1.6,10.2
			c1.6,3.7,4.9,5.5,9.8,5.5H558.5z M536.4,1156h-15v-15.8h15V1156z M561.2,1156h-15v-15.8h15V1156z"/>
		<path class="st0" d="M684.5,1261.4h-18.1c-6.1,0-11.2-2.6-15.4-7.7c-2.4-2.8-4.1-5.7-5.1-8.7c-3.9,10-14.2,15.8-25.4,16.5h-26.6
			v-13h22.6c3.9,0,7.3-1,10.6-3c4.3-2.8,6.3-6.5,6.3-11.2c0.4,3.3,0.4-12.4-0.2-46.9h14c0,13,0.2,25.8,0.4,38.6
			c0.2,7.1,2.2,12.8,6.3,17.1c3.5,3.7,7.3,5.5,11.2,5.5h19.5v3.5v6.3V1261.4z M637,1291.5h-15.2v-15.6H637V1291.5z M661.7,1291.5
			h-15v-15.6h15V1291.5z"/>
		<path class="st0" d="M730.2,1235c0,16.3-9.8,26.4-27.6,26.4H680v-13h22.3c7.9,0,13.8-4.7,13.8-13.8c0,1.8-0.2-13.8-0.6-47.3h14
			C730,1219.4,730.2,1235.2,730.2,1235z M718.2,1291.3h-15v-15.6h15V1291.3z"/>
		<path class="st0" d="M798.1,1261.4h-17.5c-5.7,0-10.6-2-14.4-5.9c-4.5-4.3-6.9-10.4-6.9-18.1l-0.6-107.5h14l0.6,105.6
			c0,7.5,3.3,11.8,9.5,12.8h15.2V1261.4z"/>
		<path class="st0" d="M918,1261.4H794.6v-13h86.8c-0.2-15.2-4.5-27.6-12.4-37.2c-7.3-8.9-16.1-13.4-26.4-13.4
			c-9.1,0-18.5,2.6-28,7.9l-5.9-12c12.4-5.7,23.4-8.5,33.1-8.5c17.7,0,31.1,6.5,40.4,19.7c7.7,10.8,12.4,25.2,13.8,43.5H918V1261.4z
			"/>
		<path class="st0" d="M1064.8,1237.4c0,16.1-11.4,26.8-27,26.8c-6.9,0-12.4-1.2-16.3-3.5c-4.5-2.6-8.1-6.9-11.2-13
			c-3.7,10.8-12.2,16.1-25.4,16.1c-6.7,0-12.2-1-16.1-3c-3.5-1.8-6.3-4.7-8.7-8.5v9.1h-45.9v-13h32.3v-31.7c0-6.3,0-14.2-0.2-23.6
			h14v35.6c0.4,15,8.3,22.6,24,22.6c7.9,0,13.8-4.7,13.8-13.8c0-4.3-0.2-19.1-0.6-44.3h14c0,7.7,0,19.5,0.2,35.6
			c0.2,7.5,2.6,13.2,7.3,17.1c4.3,3.7,10.2,5.5,17.5,5.5c7.9,0,14.4-4.9,14.4-13.8c0-3.9-0.2-20.5-0.6-50.2h14
			C1064.6,1219.4,1064.8,1236,1064.8,1237.4z"/>
		<path class="st0" d="M1267.6,1245.6c-1.6,9.8-8.7,15.8-18.7,15.8h-62.2c-15.6,0-27.4-6.3-35.6-18.9c-6.7-10.4-10.2-24-10.8-40.8
			l-0.6-14.4h12l0.6,14.4c0.6,17.9,5.3,30.9,14.2,38.8c5.9,5.3,12.6,7.9,20.1,7.9h58.7c5.5,0,8.1-3.9,8.1-11.4
			c0-4.5-0.2-21.1-0.8-49.8h14.4C1267.4,1197.6,1267.6,1217.1,1267.6,1245.6z M1198.9,1187.2h-15v-15.6h15V1187.2z M1223.7,1187.2
			h-15v-15.6h15V1187.2z"/>
		<path class="st0" d="M1353.4,1221.6c0,11.8-4.9,21.3-14.8,28.9c-9.8,7.3-22.3,11-37.8,11h-9.8v-13.2h8.9c9.5,0,17.7-1.8,24.8-5.5
			c9.8-5.1,14.4-13.2,14.4-24c0-2.8-0.4-32.5-1-88.8h14L1353.4,1221.6z M1315.4,1235c-3.7,2.8-8.3,2.8-14.2,2.8
			c0-17.9-0.4-54-1-108.3h14L1315.4,1235z"/>
		<path class="st0" d="M1421.2,1261.4h-17.5c-5.7,0-10.6-2-14.4-5.9c-4.5-4.3-6.9-10.4-6.9-18.1l-0.6-107.5h14l0.6,105.6
			c0,7.5,3.3,11.8,9.5,12.8h15.2V1261.4z"/>
		<path class="st0" d="M1603.9,1261.4H1419v-13h33.1v-41.9h12.8v17.9c7.1-13.2,16.9-23.2,29.1-29.9c10.8-5.9,20.5-8.5,29.7-7.5
			c15.6,1.6,27,8.7,34.1,21.3c5.1,9.1,8.1,22.6,9.5,40h36.6V1261.4z M1552.9,1248.4c-0.2-9.1-1.4-17.1-3.5-23.8
			c-4.9-16.1-13.6-24.4-26-25.2c-24.4-1.4-43.9,14-58.5,46.7v2.2H1552.9z"/>
		<path class="st0" d="M1650,1235c0,16.3-9.8,26.4-27.6,26.4h-22.6v-13h22.3c7.9,0,13.8-4.7,13.8-13.8c0,1.8-0.2-13.8-0.6-47.3h14
			C1649.8,1219.4,1650,1235.2,1650,1235z M1625.2,1170.8h-15v-15.6h15V1170.8z M1650.2,1170.8h-15v-15.6h15V1170.8z"/>
		<path class="st0" d="M1693.7,1261.4h-14l-1-131.5h14L1693.7,1261.4z"/>
	</g>
</g>
</svg>
