<svg width="51" height="37" viewBox="0 0 51 37" fill="none" xmlns="http://www.w3.org/2000/svg">
<path d="M47.4569 13.8776C45.0146 11.1447 41.5461 9.52859 37.8926 9.40719C37.07 6.72993 35.466 4.42616 33.238 2.72868C30.8949 0.943361 28.0813 0 25.1019 0C19.9467 0 15.3398 2.86507 13.0789 7.4769C12.8032 8.03892 12.7868 8.69235 13.0332 9.26936C13.2803 9.84852 13.7659 10.2906 14.3658 10.4812C15.3912 10.8083 16.4831 10.3384 16.963 9.36434C18.497 6.25146 21.6156 4.31761 25.1019 4.31761C28.8361 4.31761 32.1561 6.57425 33.5215 9.98491C31.5898 10.5748 29.8016 11.6031 28.3219 12.9792C27.8642 13.4049 27.6142 14.0083 27.6378 14.6346C27.6606 15.2623 27.9549 15.8479 28.449 16.2435C29.2881 16.9162 30.4807 16.8655 31.2834 16.1228C32.9623 14.5703 35.1525 13.7155 37.4506 13.7155C40.0386 13.7155 42.5123 14.8231 44.2377 16.7541C45.9866 18.7115 46.7864 21.2424 46.4886 23.8804C45.973 28.4594 42.076 31.9122 37.4242 31.9122C37.377 31.9122 37.3292 31.9115 37.2828 31.9107C31.4719 31.825 27.8877 26.1506 26.1646 23.4226C24.672 21.0596 22.9803 18.5152 22.1047 17.209C21.5163 16.3314 20.9114 15.5922 20.2559 14.9502C17.9742 12.715 15.2684 11.6288 11.9834 11.6288C8.6963 11.6288 5.62984 12.9335 3.34964 15.3016C1.07015 17.6696 -0.116015 20.7854 0.00895761 24.0768C0.243191 30.2475 5.25707 35.3014 11.4243 35.5828C14.1565 35.7063 16.8752 34.8851 19.0776 33.269C19.576 32.9034 19.8867 32.3385 19.9302 31.7201C19.9738 31.0973 19.7431 30.4896 19.2961 30.054L19.2318 29.9919C18.4934 29.2713 17.3387 29.1963 16.4867 29.8141C15.0842 30.831 13.3567 31.3487 11.6207 31.2687C7.67867 31.0888 4.47296 27.8574 4.32371 23.9125C4.24373 21.8051 5.00213 19.8106 6.46037 18.2966C7.91933 16.7813 9.88033 15.9472 11.9834 15.9472C14.1408 15.9472 15.7604 16.5913 17.2344 18.0353C17.6764 18.468 18.0963 18.9843 18.5177 19.6135C19.3818 20.9025 21.0493 23.4105 22.5132 25.7285C24.4749 28.8343 29.0682 36.1084 37.2171 36.2283C37.2871 36.2298 37.3556 36.2298 37.4256 36.2298C44.2762 36.2298 50.0171 31.128 50.7798 24.3631C51.2097 20.5447 49.9985 16.722 47.4569 13.8776Z" fill="#117EC2"/>
</svg>
